<svg viewBox="0 0 400 400" xmlns="http://www.w3.org/2000/svg" id="User-Network-1--Streamline-Brooklyn.svg" height="400" width="400"><desc>User Network 1 Streamline Illustration: https://streamlinehq.com</desc><path d="M360.364 178.508a0.564 0.564 0 0 0 -1.098 -0.166 23.298 23.298 0 0 0 0.8 14.818c0.4 0.878 1.622 0.288 1.472 -0.56a64.5 64.5 0 0 1 -1.326 -7.254c-0.132 -2.046 0.152 -4.718 0.152 -6.838Z" fill="#06283d" stroke-width="1"></path><path d="M343.124 170.572c0 -0.416 -0.652 -0.65 -0.85 -0.2a16.294 16.294 0 0 0 -0.954 3.338c-0.46 2.2 -1.822 5.4 -0.29 5.49a7.8 7.8 0 0 0 4.372 -1.492 0.384 0.384 0 0 0 0.126 -0.414c-0.336 -1 -2.788 0.234 -3.8 0.436a46.8 46.8 0 0 0 1.396 -7.158Z" fill="#06283d" stroke-width="1"></path><path d="M342.938 183.564c2.558 -0.2 4.012 -3.348 2.942 -3.542 -1.144 -0.2 -1.316 1.084 -1.97 1.636 -1.322 1.12 -2.568 0.104 -3.522 -0.912a0.4 0.4 0 0 0 -0.684 0.29c0 1.164 1.068 2.528 3.234 2.528Z" fill="#06283d" stroke-width="1"></path><path d="M340.056 168.832c-0.562 -1.304 -1.858 -0.98 -2.238 0.102s-0.094 2.508 1.016 2.508c0.646 0 0.89 -0.448 1.16 -0.974a1.978 1.978 0 0 0 0.062 -1.636Z" fill="#06283d" stroke-width="1"></path><path d="M348.696 169.338c-0.562 -1.302 -1.858 -0.98 -2.238 0.104s-0.094 2.508 1.016 2.508c0.646 0 0.888 -0.448 1.16 -0.974a1.982 1.982 0 0 0 0.062 -1.638Z" fill="#06283d" stroke-width="1"></path><path d="M381.522 200.536c-1.26 -2.576 -5.2 -3.642 -7.708 -4.724a36.38 36.38 0 0 0 -9.264 -2.88c-1.252 -0.732 -3.458 2.236 -5.492 3.418a15.084 15.084 0 0 1 -6.32 2c-4.018 0.326 -7.178 -1.2 -10.9 -3.2a0.764 0.764 0 0 0 -0.974 0.186 0.068 0.068 0 0 0 -0.02 0.042 14.8 14.8 0 0 0 -6.424 0.746 44.572 44.572 0 0 0 -6.88 2.134 42.444 42.444 0 0 0 -11.48 6.384c-0.9 0.742 0.284 2.124 1.14 1.512a54.524 54.524 0 0 1 17.364 -8.124 58.238 58.238 0 0 0 6.446 -1.512c3.692 4 11.628 5.53 18.214 2.2a13.942 13.942 0 0 0 5.534 -4.516c2.922 0.932 5.666 2 8.226 3.086a25.2 25.2 0 0 1 7.4 4.166 0.74 0.74 0 0 0 1.138 -0.918Z" fill="#06283d" stroke-width="1"></path><path d="M81.132 245.69c-4.4 -3.82 -10.176 -4.27 -15.934 -4.082a0.55 0.55 0 0 0 0 1.098c1.554 0.188 3.128 0.332 4.704 0.538a30.4 30.4 0 0 0 0.33 9.098 4.456 4.456 0 0 0 1.016 2.8 0.648 0.648 0 0 0 1.058 -0.29c0.4 -1.092 -0.164 -1.418 -0.644 -5.906 -0.2 -1.824 -0.2 -3.668 -0.29 -5.512 8.786 1.424 9.284 5.258 11.4 6.506a0.516 0.516 0 0 0 0.766 -0.436c0.082 -1.556 -1.264 -2.822 -2.406 -3.814Z" fill="#06283d" stroke-width="1"></path><path d="M297.618 123.388c-2.914 -7.224 -9.368 -9.696 -16.91 -8.496 -17.8 2.828 -10.02 14.304 -18.878 17.034a15.426 15.426 0 0 0 -3.378 1.264 1.28 1.28 0 0 0 -1.47 1.222 0.91 0.91 0 0 0 0.31 1.346 2.112 2.112 0 0 0 0.788 0.746 21.15 21.15 0 0 0 11.024 2.2 15.874 15.874 0 0 0 29.612 -4.904 19.706 19.706 0 0 0 -1.098 -10.412ZM288.23 143.4a13.6 13.6 0 0 1 -17.324 -6.652c-0.69 -1.382 -2.19 0 -6.858 -0.912a21.768 21.768 0 0 1 -3.626 -1.036 2.056 2.056 0 0 0 -0.228 -0.188c4.236 -1.466 6.4 -0.872 8.93 -7.624 1.074 -2.86 1.918 -5.654 4.642 -7.296 4.848 -2.92 13.678 -4.084 18.382 0 6.114 5.318 6.384 19.156 -3.918 23.708Z" fill="#38a1ff" stroke-width="1"></path><path d="M278.014 127.428c1.322 0.116 7.43 0.312 7.584 0.312a7.2 7.2 0 0 0 2.3 -0.332 0.864 0.864 0 0 0 0.6 -0.83c0 -1.666 -4.374 -1.07 -6.2 -1.056 -1.4 0 -2.86 0.062 -4.29 0.186a0.86 0.86 0 0 0 0.006 1.72Z" fill="#38a1ff" stroke-width="1"></path><path d="M278.264 130.122a0.882 0.882 0 0 0 0.2 1.74 50.962 50.962 0 0 1 8.87 0.912c1.112 0 1.216 -1.624 0.228 -2.03a17.878 17.878 0 0 0 -9.298 -0.622Z" fill="#38a1ff" stroke-width="1"></path><path d="M289.474 136.11c-2.268 -0.68 -4.31 -0.064 -11.376 -1a0.968 0.968 0 0 0 -0.27 1.906c3.34 0.546 7.938 1.832 11.646 0.788a0.884 0.884 0 0 0 0 -1.694Z" fill="#38a1ff" stroke-width="1"></path><path d="M182.974 364.344c0.674 5.26 10.842 4.04 13.348 3.974 17.29 -0.44 27.816 3.05 30.4 -3.084a4.6 4.6 0 0 0 -0.644 -4.552c-2.77 -3.834 -7.376 -3.374 -11 -5.188 -0.95 -0.482 -2.18 -1.456 -3.506 -2.126a102.11 102.11 0 0 1 -0.67 -11.564c39.972 0 43.324 0.694 46.18 -5.158 2.068 -4.51 0.234 -36.93 -0.042 -41.812 -0.8 -13.696 0.756 -24.312 -12.91 -25.138 -2.482 -0.144 -70.754 1.5 -71.586 1.776a3.938 3.938 0 0 0 -2.176 -0.556c-10.332 0.36 -16.566 0.492 -17.384 11.89 -1.4 19.366 -0.862 45.306 0.09 50.686a9.462 9.462 0 0 0 3.964 6.658c2.868 1.814 3.034 1.4 41.632 1.4a101.374 101.374 0 0 1 0.01 12.522c-0.6 0.2 -12.764 4.658 -14.094 5.826a5.692 5.692 0 0 0 -1.612 4.446ZM237 282.2c5.752 -0.098 6.144 0.32 6.426 5.844 0.088 1.684 2.212 38.778 1.224 40.2 -1.24 1.098 -78.358 0.064 -78.156 0.064 -1.47 -2.778 -1.078 -41.298 0.186 -43.86 0.494 -1.008 -1.146 -1.022 70.32 -2.248Z" fill="#06283d" stroke-width="1"></path><path d="M74.646 234.314c-1.706 -4.702 -2.32 -9.2 -5.014 -21.924 -1.226 -5.782 -3.2 -12.19 -8.724 -15.232a7.81 7.81 0 0 0 -7.834 -0.4c-1.248 0.8 -1.936 -0.164 -4.31 0.354a9.418 9.418 0 0 0 -3.8 1.906c-4.65 3.708 -6.712 9.78 -7.6 15.458 -1.22 7.75 -0.494 15.778 -3.2 23.272a0.436 0.436 0 0 0 0.29 0.518A73.032 73.032 0 0 0 48.826 242c-4.822 1.828 -9.686 2.298 -15.064 4.62 -1.474 0.636 -3.77 1.494 -4.434 3.068a0.834 0.834 0 0 0 0.91 1.2 6.8 6.8 0 0 0 2.426 -1.2c3.69 -2.148 8.682 -3.086 13.096 -4.8 2.086 11.13 0.716 12.266 1.6 14.09a0.822 0.822 0 0 0 1.4 0 6.136 6.136 0 0 0 0.456 -3.502 30.882 30.882 0 0 0 -2.114 -11.126 22.278 22.278 0 0 0 3.73 -2.074c0.8 0.084 1.618 0.16 2.446 0.228a0.426 0.426 0 0 0 0.414 -0.414 44.626 44.626 0 0 0 -2.28 -17.78 3.2 3.2 0 0 0 0.416 -1.45 0.65 0.65 0 0 0 -0.83 -0.622c-0.432 0.152 -0.65 0.576 -0.932 1.058a4.908 4.908 0 0 1 -1.306 1.4c-1.286 0.826 -2.964 -1.14 -3.108 -3.274 -0.104 -1.554 0.698 -5.6 3.73 -3.896 0.866 0.486 1.32 -0.354 0.684 -1.264a20.36 20.36 0 0 1 1.098 -7.252 9.826 9.826 0 0 1 3.916 -5.762 0.4 0.4 0 0 0 0.27 -0.02 7.328 7.328 0 0 1 7.812 2.03 20.07 20.07 0 0 1 4.2 9.078 25.33 25.33 0 0 1 0.682 9.054 17.162 17.162 0 0 1 -1.698 6.114 4.722 4.722 0 0 1 -2.612 1.8c-2.568 0.588 -4.934 -1.082 -6.962 -2.382 -0.188 -0.122 -0.438 0.5 -0.29 0.704a8.132 8.132 0 0 0 5.6 2.984 24.738 24.738 0 0 0 0.58 8.6 0.43 0.43 0 0 0 0.416 0.31c4.93 0.544 8.536 -3.274 11.458 -6.672 0.09 -0.224 0.172 -0.39 0.11 -0.534Zm-34.8 -1.906c-0.2 0.724 -0.518 1.8 -1.45 1.718s0.098 -1.8 0.352 -2.61c0.326 -1.032 0.456 -2.092 0.766 -3.108a0.4 0.4 0 0 1 0.788 0.104 10.368 10.368 0 0 1 -0.448 3.888Zm8.268 -31.892c-0.8 1.534 -1.9 1.176 -3.418 4.682 -0.942 2.174 -1.134 4.388 -1.97 5.222a0.4 0.4 0 0 1 -0.622 -0.082c-1.4 -2.544 2.264 -11.242 5.762 -10.444a0.422 0.422 0 0 1 0.256 0.622Z" fill="#06283d" stroke-width="1"></path><path d="M194.67 76.12c-1.296 -1.4 -3.55 0.678 -2.176 2.052a1.496 1.496 0 1 0 2.176 -2.052Z" fill="#06283d" stroke-width="1"></path><path d="M203.042 77.052a1.412 1.412 0 0 0 -1.388 1.452 1.46 1.46 0 0 0 2.734 0.766 1.53 1.53 0 0 0 -1.346 -2.218Z" fill="#06283d" stroke-width="1"></path><path d="M196.4 83.186a9.96 9.96 0 0 0 0.87 -1.388 7.456 7.456 0 0 0 1.472 -3.356 0.588 0.588 0 0 0 -0.872 -0.498c-1.764 0.844 -2.054 3.412 -3.75 4.372a1.106 1.106 0 0 0 -0.228 1.7c0.974 0.89 2.134 1.988 3.522 1.72a0.812 0.812 0 0 0 0.478 -1.182 4.25 4.25 0 0 0 -1.492 -1.368Z" fill="#06283d" stroke-width="1"></path><path d="M192.8 89.6c0.678 2.358 6.094 2.546 6.486 -0.084a1.114 1.114 0 0 0 -1.056 -1.388c-0.85 0.022 -1.576 0.508 -2.424 0.56s-1.66 -0.128 -2.488 0a0.746 0.746 0 0 0 -0.518 0.912Z" fill="#06283d" stroke-width="1"></path><path d="M204.016 74.524c0.27 0.144 0.496 0.374 0.746 0.518 0.79 0.46 2 0.242 2.05 -0.87 0.106 -2.116 -4.2 -3.092 -4.516 -1.056 -0.062 1.026 1.07 1.064 1.72 1.408Z" fill="#06283d" stroke-width="1"></path><path d="M192.68 73.924a11.372 11.372 0 0 0 1.514 -0.312 10.656 10.656 0 0 0 1.532 -0.102 0.932 0.932 0 0 0 0.414 -1.534 2.566 2.566 0 0 0 -4.122 1.264 0.648 0.648 0 0 0 0.662 0.684Z" fill="#06283d" stroke-width="1"></path><path d="M242.102 93.362a13.4 13.4 0 0 1 -3.77 -8.746 31.426 31.426 0 0 1 2.278 -9.6 23.938 23.938 0 0 0 -1.492 -16.826c-4.916 -10.016 -21.322 -9.86 -20.472 -2.28a2.334 2.334 0 0 0 -2 -0.538c-1.468 0.292 -1.856 1.126 -1.638 1.884a17.816 17.816 0 0 0 -17.034 -0.248 15.6 15.6 0 0 0 -7.542 10.072c-0.218 0.568 -0.458 1.026 -0.2 1.326a2.04 2.04 0 0 0 -0.02 0.268 32.338 32.338 0 0 0 -1.968 7.046c-1.568 6.776 -2.498 15.626 2.568 20.328a10.062 10.062 0 0 0 7.22 2.77 10.03 10.03 0 0 1 0.034 1.188c-2.556 -0.2 -2.79 1.64 -2.57 4.228a43.052 43.052 0 0 0 -9.304 2.342 23.18 23.18 0 0 0 -7.522 2.6c-1.37 1.014 -2.032 1.7 -0.85 3.2a19.716 19.716 0 0 0 7.73 5.014 59.8 59.8 0 0 0 9.344 3.584c2.944 0.83 5.576 2.334 8.704 2.384 12.618 0.2 15.564 -1.118 25.324 -6.486a38.6 38.6 0 0 0 7.48 -5.014 0.6 0.6 0 0 0 0.476 -1.036c-4.246 -3.848 -12.056 -5.8 -17.738 -6.942 -3.048 -0.616 -3.2 -0.346 -3.626 -1.452a10.338 10.338 0 0 0 -1.326 -2.9 2.084 2.084 0 0 0 -1.928 -1.036c0.166 -0.954 -0.13 -2.074 -0.062 -3.026 0.076 -1.078 0.688 -2.324 0.02 -3.294a0.778 0.778 0 0 0 -0.87 -0.354c-1.364 0.504 -1.478 2.134 -1.554 3.42a6.104 6.104 0 0 0 0.664 3.8c-3.84 1.484 -6.318 2.31 -10.278 1.43a4.092 4.092 0 0 0 -0.038 -1.86 16.812 16.812 0 0 0 11.434 -9.31c3.838 1.536 8.772 -1.622 8.186 -7.294a0.358 0.358 0 0 0 0.144 -0.166 21.742 21.742 0 0 0 -0.268 -19.892 2.532 2.532 0 0 0 1.118 -0.58c0.4 0.912 0.832 1.8 1.244 2.714 4.108 9.12 -0.762 14.8 2 22.068 2.646 6.946 10.816 12.33 17.966 8.124a0.558 0.558 0 0 0 0.136 -0.91Zm-29.28 7.5a3.874 3.874 0 0 1 0.414 3.234c-0.296 0.95 -1.8 0.54 -1.492 -0.416a2.324 2.324 0 0 0 -0.268 -2.03c-0.54 -0.85 0.808 -1.638 1.346 -0.788Zm-4.642 0.684c1.264 -0.356 1.466 2.354 1.244 3.648 -0.17 1 -1.652 0.56 -1.492 -0.416a4.162 4.162 0 0 0 -0.29 -2.278 0.772 0.772 0 0 1 0.538 -0.954Zm-5.034 3.17a7.836 7.836 0 0 0 -0.126 -1.636c-0.164 -0.974 1.316 -1.386 1.492 -0.414 0.2 1.078 0.582 2.84 -0.476 3.584 -0.828 0.582 -1.6 -0.766 -0.788 -1.346 -0.164 0.124 -0.102 -0.062 -0.102 -0.188Zm-3.564 -1.948a10.624 10.624 0 0 0 -0.084 2.84c0.094 1 -1.456 1 -1.554 0a11.586 11.586 0 0 1 0.124 -3.254c0.178 -0.976 1.682 -0.554 1.514 0.414Zm10.112 -38.108c0.16 -0.354 0.65 -0.146 0.682 0.188a31.524 31.524 0 0 0 0.706 3.252c0.214 1.044 -1.8 1.97 -1.844 -1.492a4.21 4.21 0 0 1 0.456 -1.948Zm7.21 19.956a3.276 3.276 0 0 1 -5.678 1.12 0.934 0.934 0 0 0 -1.554 0.414 2.296 2.296 0 0 0 0.478 2.176c-2.4 2.838 -4.702 5.974 -8.29 7.356a9.024 9.024 0 0 1 -10.818 -2.736c-4.77 -7 0.502 -20.4 0.624 -23.954a0.662 0.662 0 0 0 0.226 -0.186 13.584 13.584 0 0 1 0.974 -1.2c4.58 -2.3 10.382 -4.2 15.212 -2.488a15.134 15.134 0 0 0 0.124 5.036 17.432 17.432 0 0 0 3.418 8.786 0.484 0.484 0 0 0 0.746 0.104 3.784 3.784 0 0 1 0.788 -0.622 0.52 0.52 0 0 0 0.248 0c3.178 -0.728 4.372 3.852 3.502 6.194Zm18.132 -26.42a0.878 0.878 0 0 1 -1.306 0.746c-1.488 -0.836 -2.09 -2.698 -3.666 -3.6a9.8 9.8 0 0 0 -6.2 -1.286c-0.476 0.088 -0.892 -0.476 -0.498 -0.848 1.922 -1.8 4.644 -1.126 6.86 -0.188 1.85 0.78 5.094 2.856 4.81 5.18Zm3.212 14.36a0.694 0.694 0 0 1 -0.518 0.518c-0.062 0 -0.124 0.042 -0.186 0.02 -1.128 -0.132 -0.762 -1.858 -1.7 -3.46 -0.374 -0.64 0.538 -1.388 1.058 -0.8a4.342 4.342 0 0 1 1.346 3.722Z" fill="#06283d" stroke-width="1"></path><path d="M84.054 117.482a3.53 3.53 0 0 1 -4.434 -1.2 6.4 6.4 0 0 1 -0.912 -6.2 2.338 2.338 0 0 1 2.776 -0.788 0.918 0.918 0 0 0 0.726 -1.658 3.422 3.422 0 0 0 -2.114 -0.558c-2.568 -6.086 -0.4 -7.96 -1.264 -11.17a0.836 0.836 0 0 0 -1.532 -0.084 12.582 12.582 0 0 0 -0.52 6.902 11.2 11.2 0 0 0 1.638 4.848c-5.786 2.976 -1.672 14.02 5.304 13a22.324 22.324 0 0 1 -0.124 9.118c-0.276 1.27 -1.072 4.6 0.166 4.972a0.768 0.768 0 0 0 0.788 -0.186c1.78 -1.8 1.688 -5.47 1.864 -7.584a14.056 14.056 0 0 0 -0.704 -7.108c1.388 -1.334 0.838 -3.552 -1.658 -2.304Z" fill="#06283d" stroke-width="1"></path><path d="M81.174 93.588c0.454 4.24 -0.824 4.916 0.29 5.368a0.726 0.726 0 0 0 0.932 -0.29 8.694 8.694 0 0 0 1.182 -5 7.286 7.286 0 0 0 -0.954 -4.31 0.928 0.928 0 0 0 -0.932 -0.332c-1.512 0.308 -0.68 3.042 -0.518 4.564Z" fill="#06283d" stroke-width="1"></path><path d="M90.25 85.32a1 1 0 0 0 -1.824 -0.248 20.4 20.4 0 0 0 -1.284 4.89c-0.482 1.724 -1.364 3.298 -1.8 5a0.752 0.752 0 0 0 1.118 0.83 8.436 8.436 0 0 0 2.902 -4.538 12.128 12.128 0 0 0 0.888 -5.934Z" fill="#06283d" stroke-width="1"></path><path d="M93.546 94.17a7.522 7.522 0 0 0 2.672 -4.2 11.702 11.702 0 0 0 0.374 -6.444 0.968 0.968 0 0 0 -1.844 -0.02c-1.182 3.142 -0.09 6.634 -2.342 9.262 -0.696 0.802 0.348 2.046 1.14 1.402Z" fill="#06283d" stroke-width="1"></path><path d="M101.296 84.43c-1.154 -0.816 -2.504 0.936 -1.514 1.886a8.512 8.512 0 0 1 -0.02 2.03 10.448 10.448 0 0 1 -2.218 6.342c-0.8 0.986 0.534 2.2 1.368 1.366a9.722 9.722 0 0 0 3.15 -5.988c0.138 -0.844 1.046 -4.354 -0.766 -5.636Z" fill="#06283d" stroke-width="1"></path><path d="M90.976 103.308a1.034 1.034 0 0 0 -1.348 1.14c-0.116 0.698 0.506 1.78 1.452 1.532a1.46 1.46 0 0 0 -0.104 -2.672Z" fill="#06283d" stroke-width="1"></path><path d="M97.732 101.712a1.268 1.268 0 0 0 -1.224 1.678 1.282 1.282 0 0 0 1.244 1.452c1.616 0 1.402 -2.94 -0.02 -3.13Z" fill="#06283d" stroke-width="1"></path><path d="M94.56 110.354a0.746 0.746 0 0 0 -0.166 1.2c1.092 0.918 3.614 1.064 3.42 -0.85a10.668 10.668 0 0 0 -3.108 -6.548c-0.544 -0.46 -1.52 0.048 -1.222 0.766 0.57 1.378 1.952 3.736 2.424 5.304a2.296 2.296 0 0 0 -1.348 0.128Z" fill="#06283d" stroke-width="1"></path><path d="M99.97 113.752c-0.852 -0.568 -0.2 0.282 -6.694 0.746a0.696 0.696 0 0 0 -0.56 1.016 5.744 5.744 0 0 0 1.534 4.868 3.502 3.502 0 0 0 3 0.664 3.56 3.56 0 0 0 2.922 -1.948 7.718 7.718 0 0 0 0.27 -4.704 0.984 0.984 0 0 0 -0.472 -0.642Zm-1.57 3.916c-0.18 0.748 -0.516 1.042 -1.346 1.244 -0.972 0.234 -1.49 0.08 -1.824 -0.478a6.34 6.34 0 0 1 -0.538 -2.34 14.318 14.318 0 0 0 3.832 -0.166 5.742 5.742 0 0 1 -0.124 1.74Z" fill="#06283d" stroke-width="1"></path><path d="M124.152 141.498c-3 -3.306 -5.014 -3.4 -9.138 -4.828a61.54 61.54 0 0 0 -15.232 -3.17 0.9 0.9 0 0 0 -1.076 -0.042 6.918 6.918 0 0 0 -0.312 -1.078 34.12 34.12 0 0 1 -0.954 -6.18 7.302 7.302 0 0 0 7.98 -4.932c1.386 -3.69 0.502 -7.98 -0.228 -11.708a41.478 41.478 0 0 0 -4.186 -12.62 0.6 0.6 0 0 0 -1.078 0.456c1.69 6.432 4.45 12.888 4.144 19.666 -0.168 3.73 -2.03 7.162 -6.216 6.8a56.834 56.834 0 0 1 -9.16 -2.258 0.662 0.662 0 0 0 -0.642 1.098 14.464 14.464 0 0 0 8.4 3.378A9.534 9.534 0 0 0 97.2 134a0.884 0.884 0 0 0 0.85 0.434c-1.65 2.754 -3.922 6.166 -7.65 4.93a14.6 14.6 0 0 1 -7.916 -6.134 0.558 0.558 0 0 0 -0.974 0.062 15.92 15.92 0 0 0 -7.978 0.684 131.4 131.4 0 0 0 -17.034 6.362c-2.506 1.122 -2.052 0.58 -3.854 2.736 -0.954 1.14 0.684 2.778 1.636 1.636 1.66 -1.988 1.08 -1.344 3.378 -2.382a139.256 139.256 0 0 1 15.682 -5.968c2.388 -0.728 8.134 -1.584 8.414 -1.866a13.092 13.092 0 0 0 9.698 6.964 9.29 9.29 0 0 0 8.4 -6.6c6.692 2 13.2 2.62 20.35 6.3a37.966 37.966 0 0 1 3.316 2.05c0.952 0.578 1.362 -0.904 0.634 -1.71Z" fill="#06283d" stroke-width="1"></path><path d="M198.4 225.854a19.242 19.242 0 0 0 -9.494 -8.036c-4.304 -1.666 -7.248 -1.678 -24.946 -2.72 1.252 -10.464 1.51 -46.278 1.56 -56.778 0.078 -17.054 0.586 -33.104 -6.624 -39.482 -3.88 -3.4 -8.6 -2.896 -12.756 -2.446 0 0 -10.516 1.07 -13.65 1.4a81.24 81.24 0 0 0 -2.272 -14.036c-2.8 -11.4 -8 -20 -15.486 -25.564 -16.082 -11.91 -42.562 -10.064 -59.55 9.422a3.426 3.426 0 0 0 -0.782 1.51 45.046 45.046 0 0 0 -9.764 46.614A46.474 46.474 0 0 0 85.554 165.6c22.318 0.818 45.188 -15.31 46.928 -40.424 17.4 -1.662 18.856 -2.184 20.626 -1.34 1.4 0.668 2.47 2.38 3.296 5.246 1.93 6.584 1.768 19.754 1.762 28.854 0 0 -0.518 53.756 -0.384 56.8 -10.754 -0.58 -19.734 -0.85 -28.118 -0.85a276.858 276.858 0 0 0 -31.328 1.644c-1.552 -13.94 -6.226 -28.22 -17.484 -36.584 -16.084 -11.91 -42.55 -10.068 -59.552 9.422a3.414 3.414 0 0 0 -0.78 1.508 45.048 45.048 0 0 0 -9.764 46.616 46.478 46.478 0 0 0 40.916 29.868c19.666 0.726 38.458 -11.578 44.712 -29.288a44.094 44.094 0 0 0 2.344 -14.246c1.828 -0.132 3.65 -0.306 5.428 -0.476 24.862 -2.366 51.512 -0.278 68.028 0.568 3.2 0.162 6.506 0.33 9.686 0.72 8.164 1 11.814 5.8 11.94 13.8 0.144 9.29 -0.586 23.838 0 32.4a3.132 3.132 0 0 0 3.108 3h0.048a3.2 3.2 0 0 0 3.2 -2.936c0.534 -5.164 0.878 -25.054 0.942 -30.114a25.056 25.056 0 0 0 -2.708 -13.934ZM91.2 158.428a38.928 38.928 0 0 1 -42.2 -42.67 45.112 45.112 0 0 1 9.6 -22.652 3.276 3.276 0 0 0 1.346 -0.818c23.89 -23.186 52.76 -16.442 61.4 7.072a66.314 66.314 0 0 1 3.768 28.118c-2.088 15.892 -16.656 29.2 -33.914 30.95ZM57.366 259.18a38.928 38.928 0 0 1 -42.2 -42.67 45.082 45.082 0 0 1 9.578 -22.652 3.284 3.284 0 0 0 1.346 -0.818C50 169.848 78.86 176.6 87.504 200.112a66.47 66.47 0 0 1 3.768 28.118c-2.072 15.892 -16.654 29.198 -33.906 30.95Z" fill="#38a1ff" stroke-width="1"></path><path d="M361.2 154.988c-2.71 -1.612 -2.902 -0.524 -9.18 -5.76a32.982 32.982 0 0 0 -6 -4.31c-12.914 -6.55 -23.468 10.966 -10.258 17.572a0.4 0.4 0 0 0 -0.082 0.166 49.042 49.042 0 0 0 -1.492 15.024c0.12 9.2 4.322 12.146 9.76 11.542 -0.238 2.132 0.26 4.17 -0.29 5.056a0.816 0.816 0 0 0 1.118 1.12c0.916 -0.6 0.768 -1.846 0.768 -2.944a9.434 9.434 0 0 0 -0.416 -3.378c3.742 -0.622 9.882 -3.24 12.248 -6.776 0.328 -0.49 -0.278 -1.066 -0.788 -0.8 -2.464 1.246 -3.85 3.322 -9.056 5.182 -2.734 0.976 -7.672 2.032 -10.112 -1.762 -3.074 -4.78 -0.948 -14.66 -0.726 -22 4.8 1.872 10.546 1.104 15.8 1.264a16.836 16.836 0 0 0 0.306 4.216 8.57 8.57 0 0 0 2.882 5.948 0.73 0.73 0 0 0 0.87 0.144c0.58 -0.298 0.414 -0.872 0.414 -1.388a4.224 4.224 0 0 1 3.502 -1.928c1.138 0.474 1.468 3.084 0.892 4.042 -1.048 1.738 -2.754 0.954 -4.186 0.538a0.588 0.588 0 0 0 -0.664 0.87 3.2 3.2 0 0 0 2.714 1.286c3.684 0 5.132 -4.066 2.922 -7.108a0.708 0.708 0 0 0 0.352 -0.664c-0.394 -4.922 4.56 -11.66 -1.298 -15.152Zm-27.126 3.502c-1.39 -0.618 -1.886 -2.63 -1.948 -4.04s-0.144 -3.376 1.078 -4.33a0.442 0.442 0 0 1 0.746 0.31c0.062 1.264 -0.2 2.528 -0.146 3.812 0.066 1.43 1.15 2.382 1.182 3.73a0.622 0.622 0 0 1 -0.918 0.518Zm3.2 -11.666a5.298 5.298 0 0 0 -1.762 1.16c-0.172 0.224 -0.492 -0.018 -0.436 -0.248a2.454 2.454 0 0 1 0.6 -1.244 2.076 2.076 0 0 1 1.346 -0.642c0.486 -0.082 0.678 0.734 0.238 0.974Z" fill="#06283d" stroke-width="1"></path><path d="M389.6 162.344c-2.8 -11.4 -8 -20 -15.486 -25.56 -16.112 -11.934 -42.6 -10.036 -59.548 9.418a3.4 3.4 0 0 0 -0.784 1.51 44.984 44.984 0 0 0 -12.514 30.626c-8.054 -1.852 -26.16 -1.244 -35.896 -0.544a13.962 13.962 0 0 0 -4.436 0.81c-3.712 1.502 -4.488 5.642 -4.82 7.4 -2.8 14.694 -1.668 37.218 -2.372 53.274 -0.13 2.96 0.088 2.676 -2.538 3.702 -9.386 3.666 -21.13 -0.708 -35.868 -0.562 0 0 -0.136 -112.434 -0.444 -116 16.462 -2.584 30.784 -13.942 36.018 -28.758 3.16 -8.93 3.144 -19.58 -0.048 -32.56 -2.8 -11.4 -8 -20 -15.486 -25.562 -16.054 -11.89 -42.522 -10.098 -59.552 9.422a3.426 3.426 0 0 0 -0.78 1.508 44.382 44.382 0 0 0 -10.966 19.466c-7.826 29.506 15.336 57.038 44.036 57.038 -0.084 1.77 0.676 136.424 1 143.6a2.748 2.748 0 0 0 5.488 0.042c0.466 -7.378 0.566 -14.88 0.654 -22.148a31.692 31.692 0 0 0 5.722 1.09c15.018 1.89 25.6 4.142 35.262 -0.898 5.916 -3.09 5.132 -8.366 5.116 -28.634a203.618 203.618 0 0 1 1.6 -31.318 14.876 14.876 0 0 1 0.832 -3.476c1.366 -0.752 23.132 -1.892 37.982 0.264a46.268 46.268 0 0 0 43.2 38.648c19.626 0.732 38.458 -11.578 44.712 -29.29 3.134 -8.902 3.104 -19.536 -0.084 -32.508ZM350.586 217A38.926 38.926 0 0 1 308.4 174.32a45.128 45.128 0 0 1 9.58 -22.654 3.272 3.272 0 0 0 1.346 -0.816c23.8 -23.094 52.724 -16.546 61.4 7.07a66.476 66.476 0 0 1 3.766 28.126c-2.092 15.89 -16.658 29.192 -33.906 30.954ZM169.616 77.05A45.092 45.092 0 0 1 179.2 54.4a3.276 3.276 0 0 0 1.346 -0.818c23.85 -23.15 52.742 -16.494 61.4 7.072a66.268 66.268 0 0 1 3.746 28.122c-2.06 15.886 -16.628 29.184 -33.882 30.946a38.926 38.926 0 0 1 -42.194 -42.672Z" fill="#38a1ff" stroke-width="1"></path><path d="M58.338 214.524a4.042 4.042 0 0 0 -2 -0.248c-1.032 0.07 -2.434 0.174 -2.278 1.2s1.472 0.542 2.818 0.684a3.136 3.136 0 0 0 1.244 -0.04 0.88 0.88 0 0 0 0.216 -1.596Z" fill="#06283d" stroke-width="1"></path><path d="M66.316 212.038c-0.67 -0.904 -1.748 0.134 -2.528 0.932 -0.314 0.322 -0.82 0.7 -0.414 1.242a0.69 0.69 0 0 0 0.89 0.2 8.448 8.448 0 0 0 1.97 -1.284 0.878 0.878 0 0 0 0.082 -1.09Z" fill="#06283d" stroke-width="1"></path><path d="M63.56 217.134a11.95 11.95 0 0 0 -1.926 -2.444 0.65 0.65 0 0 0 -0.746 -0.062c-1.016 0.66 1.916 4.154 2.258 4.724a7.92 7.92 0 0 0 -2.052 2.03c-0.472 0.682 -0.084 1.264 0.436 1.264 0.584 0 1.508 -0.866 1.926 -1.264 1.088 -1.028 1.468 -1 1.554 -1.656 0.082 -0.61 -0.23 -0.726 -1.45 -2.592Z" fill="#06283d" stroke-width="1"></path><path d="M63.29 224.326c-0.76 0.2 -0.692 1.212 -1.18 1.4 -0.64 0.258 -1.314 -0.74 -1.576 -1.2a0.522 0.522 0 0 0 -0.952 0.4c0.498 3.17 3.718 3.124 4.558 0.892 0.36 -0.958 -0.284 -1.646 -0.85 -1.492Z" fill="#06283d" stroke-width="1"></path><path d="M148.252 264.548a1.17 1.17 0 0 0 -1.264 -1.866 38.746 38.746 0 0 0 -9.6 4.434 8.212 8.212 0 0 1 -1.72 0.146 22.382 22.382 0 0 1 3.73 -2.446 43.67 43.67 0 0 1 5.74 -2.506 1.146 1.146 0 0 0 -0.83 -2.136c-3.444 1.19 -7.314 3.362 -8.578 3.11 -0.182 -0.758 -0.168 -0.414 0.166 -0.746a23.434 23.434 0 0 1 10.05 -4.312 0.976 0.976 0 0 0 0.746 -0.6c1.052 -1.376 -1.254 -2.51 -2.218 -5.14 -1.2 -3.288 1.37 -6.768 0.6 -12.4 -0.662 -4.846 -3.484 -10.23 -8.31 -11.314 -7.9 -1.772 -19.222 9.922 -11.376 19.894 3.13 3.98 8.178 7 9.386 11.894 -0.278 0.278 -1.656 1 -1.616 2.466a2.362 2.362 0 0 0 1.4 2.134c-2.736 2.354 -1.2 4.476 1.18 4.476a2.166 2.166 0 0 0 0.436 1.162c1.706 2.34 5.418 0.034 6.134 -0.146a17.6 17.6 0 0 0 6.382 -4.58 1.102 1.102 0 0 0 -0.438 -1.524Zm-6.734 -14.34a9.78 9.78 0 0 0 2.382 6.32 24.18 24.18 0 0 0 -7.356 2.838c-1.764 -8.104 -13.37 -11.296 -11.294 -19.79 1.282 -5.24 6.932 -9.08 10.072 -8.558 4.932 0.29 7.152 6.672 7.356 10.652s-1.104 5.53 -1.16 8.53Z" fill="#38a1ff" stroke-width="1"></path><path d="M137.8 247.286c-0.662 -1.94 -0.812 -3.106 -1.7 -3.98a2.13 2.13 0 0 0 -2.216 -0.434c-0.104 -0.104 -0.2 -0.228 -0.312 -0.332a1.076 1.076 0 0 0 -1.76 0.374c0 0.02 -0.022 0.04 -0.022 0.062 -1.57 -0.262 -2.8 1.488 -2.382 3.17 0.354 1.438 1.634 2.012 3.6 4.724 3.478 4.788 2.906 6.382 4.2 6.382a0.944 0.944 0 0 0 0.912 -1.264 25.65 25.65 0 0 0 -6.2 -9.738 0.902 0.902 0 0 1 -0.166 -0.228 1.042 1.042 0 0 0 1.346 0l0.27 0.062 0.062 -0.476a1.154 1.154 0 0 0 1.306 -0.354 0.24 0.24 0 0 1 0.186 0.188 39.738 39.738 0 0 0 2.052 5.47 0.914 0.914 0 0 0 1.698 -0.58 24.456 24.456 0 0 0 -0.874 -3.046Z" fill="#38a1ff" stroke-width="1"></path></svg>