<svg xmlns="http://www.w3.org/2000/svg" fill="none" viewBox="0 0 400 400" id="Work-Chat-2--Streamline-Lagos.svg" height="400" width="400"><desc>Work Chat 2 Streamline Illustration: https://streamlinehq.com</desc><g id="work-chat-2--work-chat"><g id="message 1"><path id="vector" fill="#466bf8" d="M300.4 77.334H164.708c-3.1878 -0.0028 -6.3452 0.6228 -9.291 1.841 -2.946 1.2184 -5.6228 3.0056 -7.8776 5.2592 -2.2546 2.2538 -4.043 4.93 -5.2624 7.8754 -1.2196 2.9454 -1.8466 6.1024 -1.845 9.2904v37.986c-0.006 4.0634 1.0106 8.063 2.9558 11.6304 1.9454 3.5674 4.7572 6.588 8.1762 8.7836 -2.4142 6.1422 -6.2254 11.638 -11.132 16.052 -0.0962 0.0892 -0.1614 0.2066 -0.1862 0.3354 -0.0248 0.1288 -0.008 0.2622 0.0484 0.3806 0.0562 0.1186 0.1488 0.216 0.2642 0.2782 0.1154 0.0622 0.2478 0.086 0.3776 0.0678 9.502 -1.616 20.75 -6.052 28.022 -13.256h131.384c3.188 0.0028 6.346 -0.623 9.292 -1.8418 2.948 -1.219 5.624 -3.0068 7.878 -5.2614 2.256 -2.2546 4.044 -4.9318 5.262 -7.8782 1.22 -2.9462 1.844 -6.104 1.842 -9.2926V101.6c0.008 -3.1848 -0.612 -6.3402 -1.824 -9.285 -1.214 -2.9446 -2.996 -5.621 -5.246 -7.8754 -2.25 -2.2544 -4.922 -4.0424 -7.864 -5.2618 -2.944 -1.2194 -6.098 -1.846 -9.282 -1.8438Z" stroke-width="1"></path><g id="group"><path id="vector_2" fill="#ffffff" d="M301.852 96.016H167.4c-0.2216 -0.0044 -0.4418 0.036 -0.6472 0.1188 -0.2056 0.0828 -0.3924 0.2062 -0.549 0.363 -0.1568 0.1566 -0.2802 0.3434 -0.363 0.5488 -0.0828 0.2056 -0.1232 0.4258 -0.1188 0.6474v4.81c-0.004 0.2214 0.0366 0.4414 0.1194 0.6468 0.083 0.2054 0.2064 0.3922 0.363 0.5488 0.1566 0.1566 0.3432 0.28 0.5486 0.363 0.2054 0.0828 0.4256 0.1234 0.647 0.1194h134.516c0.222 0.0038 0.442 -0.037 0.646 -0.12 0.206 -0.083 0.392 -0.2066 0.548 -0.363 0.158 -0.1566 0.282 -0.3432 0.364 -0.5484 0.082 -0.2054 0.124 -0.4252 0.12 -0.6466v-4.81c-0.024 -0.4486 -0.216 -0.8714 -0.54 -1.183 -0.324 -0.3116 -0.752 -0.4886 -1.202 -0.495Z" stroke-width="1"></path><path id="vector_3" fill="#ffffff" d="M198.658 111.452H167.336c-0.2214 -0.0038 -0.4414 0.037 -0.6466 0.12 -0.2054 0.0828 -0.3918 0.2064 -0.5484 0.363 -0.1566 0.1566 -0.28 0.343 -0.363 0.5482 -0.083 0.2054 -0.1238 0.4252 -0.12 0.6466V117.94c-0.004 0.2214 0.0366 0.4414 0.1194 0.6468 0.083 0.2054 0.2064 0.392 0.363 0.5486 0.1566 0.1568 0.3432 0.2802 0.5486 0.363 0.2054 0.083 0.4256 0.1236 0.647 0.1194h31.322c0.2214 0.0042 0.4414 -0.0364 0.647 -0.1194 0.2054 -0.0828 0.392 -0.2062 0.5486 -0.363 0.1564 -0.1566 0.2804 -0.3432 0.3624 -0.5486 0.084 -0.2054 0.124 -0.4254 0.12 -0.6468v-4.8102c0.004 -0.2214 -0.038 -0.4412 -0.12 -0.6466 -0.084 -0.2052 -0.206 -0.3916 -0.363 -0.5482 -0.1566 -0.1566 -0.3432 -0.2802 -0.5484 -0.363 -0.2054 -0.083 -0.4252 -0.1238 -0.6466 -0.12Z" stroke-width="1"></path><path id="vector_4" fill="#ffffff" d="M238.648 111.452h-31.32c-0.222 -0.0042 -0.442 0.0364 -0.646 0.1194 -0.206 0.0828 -0.392 0.2064 -0.55 0.363 -0.156 0.1566 -0.28 0.3432 -0.362 0.5486 -0.084 0.2054 -0.124 0.4254 -0.12 0.647v4.81c-0.004 0.2214 0.036 0.4416 0.118 0.6472 0.084 0.2056 0.208 0.3922 0.364 0.549 0.156 0.1566 0.344 0.28 0.548 0.3628 0.206 0.0828 0.426 0.1232 0.648 0.119h31.32c0.222 0.0042 0.442 -0.0362 0.648 -0.119 0.204 -0.0828 0.392 -0.2062 0.548 -0.3628 0.156 -0.1568 0.28 -0.3434 0.364 -0.549 0.082 -0.2056 0.122 -0.4258 0.118 -0.6472v-4.81c0.004 -0.2216 -0.036 -0.4416 -0.12 -0.647 -0.082 -0.2054 -0.206 -0.392 -0.362 -0.5486 -0.158 -0.1566 -0.344 -0.2802 -0.55 -0.363 -0.204 -0.083 -0.424 -0.1236 -0.646 -0.1194Z" stroke-width="1"></path><path id="vector_5" fill="#ffffff" d="M301.852 111.452h-51.29c-0.222 -0.0038 -0.442 0.037 -0.646 0.12 -0.206 0.0828 -0.392 0.2064 -0.548 0.363 -0.158 0.1566 -0.28 0.343 -0.364 0.5482 -0.082 0.2054 -0.124 0.4252 -0.12 0.6466V117.94c-0.004 0.2214 0.036 0.4414 0.12 0.6468 0.082 0.2054 0.206 0.392 0.362 0.5486 0.158 0.1568 0.344 0.2802 0.55 0.363 0.204 0.083 0.424 0.1236 0.646 0.1194h51.29c0.222 0.0042 0.442 -0.0364 0.646 -0.1194 0.206 -0.0828 0.394 -0.2062 0.55 -0.363 0.156 -0.1566 0.28 -0.3432 0.362 -0.5486 0.084 -0.2054 0.124 -0.4254 0.12 -0.6468v-4.8102c0.004 -0.2214 -0.036 -0.4412 -0.12 -0.6466 -0.082 -0.2052 -0.206 -0.3916 -0.362 -0.5482 -0.158 -0.1566 -0.344 -0.2802 -0.55 -0.363 -0.204 -0.083 -0.424 -0.1238 -0.646 -0.12Z" stroke-width="1"></path></g></g><g id="message 2"><path id="vector_6" fill="#466bf8" d="M285.744 306.374c-4.91 -4.412 -8.72 -9.908 -11.132 -16.052 3.42 -2.196 6.232 -5.216 8.176 -8.784 1.946 -3.568 2.962 -7.566 2.956 -11.63v-37.978c0.002 -3.188 -0.624 -6.346 -1.842 -9.294 -1.22 -2.946 -3.008 -5.624 -5.262 -7.878 -2.254 -2.254 -4.932 -4.042 -7.878 -5.26 -2.948 -1.22 -6.106 -1.846 -9.294 -1.842H83.83c-3.1886 -0.004 -6.3464 0.622 -9.2928 1.842 -2.9464 1.218 -5.6234 3.006 -7.878 5.26 -2.2546 2.256 -4.0426 4.932 -5.2614 7.88 -1.2188 2.946 -1.8448 6.104 -1.8418 9.292v37.978c-0.003 3.188 0.623 6.346 1.8418 9.292 1.2188 2.946 3.0068 5.624 5.2614 7.878 2.2546 2.256 4.9316 4.044 7.878 5.262 2.9464 1.218 6.1042 1.844 9.2928 1.842h173.332c7.244 7.174 18.5 11.634 28.022 13.256 0.132 0.026 0.27 0.01 0.394 -0.048 0.122 -0.058 0.222 -0.154 0.286 -0.274 0.062 -0.12 0.086 -0.258 0.064 -0.392 -0.022 -0.132 -0.086 -0.256 -0.184 -0.35Z" stroke-width="1"></path><g id="group_2"><path id="vector_7" fill="#ffffff" d="M258.784 230.42H84.668c-0.2214 -0.004 -0.4414 0.036 -0.647 0.12 -0.2054 0.082 -0.392 0.206 -0.5486 0.362 -0.1566 0.156 -0.28 0.344 -0.363 0.548 -0.0828 0.206 -0.1234 0.426 -0.1194 0.648v4.8c-0.0038 0.222 0.037 0.442 0.12 0.646 0.083 0.206 0.2064 0.392 0.363 0.548 0.1566 0.158 0.3432 0.28 0.5484 0.364 0.2054 0.082 0.4252 0.124 0.6466 0.12h174.116c0.222 0.004 0.442 -0.036 0.646 -0.12 0.206 -0.082 0.392 -0.206 0.55 -0.362 0.156 -0.158 0.28 -0.344 0.362 -0.55 0.084 -0.204 0.124 -0.424 0.12 -0.646v-4.8c-0.002 -0.444 -0.178 -0.872 -0.492 -1.186 -0.316 -0.314 -0.742 -0.492 -1.186 -0.492Z" stroke-width="1"></path><path id="vector_8" fill="#ffffff" d="M258.784 245.856h-31.322c-0.222 -0.004 -0.442 0.036 -0.646 0.12 -0.206 0.082 -0.392 0.206 -0.548 0.362 -0.158 0.158 -0.282 0.344 -0.364 0.55 -0.084 0.204 -0.124 0.424 -0.12 0.646v4.81c-0.004 0.222 0.036 0.442 0.12 0.646 0.082 0.206 0.206 0.392 0.362 0.55 0.158 0.156 0.344 0.28 0.55 0.362 0.204 0.084 0.424 0.124 0.646 0.12h31.322c0.222 0.004 0.442 -0.036 0.648 -0.12 0.204 -0.082 0.392 -0.206 0.548 -0.362 0.156 -0.156 0.28 -0.344 0.364 -0.548 0.082 -0.206 0.122 -0.426 0.118 -0.648v-4.81c0.004 -0.222 -0.036 -0.442 -0.12 -0.648 -0.082 -0.204 -0.206 -0.392 -0.362 -0.548 -0.158 -0.156 -0.344 -0.28 -0.55 -0.362 -0.204 -0.084 -0.424 -0.124 -0.646 -0.12Z" stroke-width="1"></path><path id="vector_9" fill="#ffffff" d="M218.8 254.022c0.222 0.004 0.442 -0.036 0.646 -0.12 0.206 -0.082 0.392 -0.206 0.548 -0.362 0.158 -0.158 0.28 -0.344 0.364 -0.55 0.082 -0.204 0.122 -0.424 0.118 -0.646v-4.81c0.004 -0.222 -0.036 -0.442 -0.12 -0.646 -0.082 -0.206 -0.206 -0.392 -0.362 -0.55 -0.156 -0.156 -0.342 -0.28 -0.548 -0.362 -0.204 -0.084 -0.424 -0.124 -0.646 -0.12H187.472c-0.2214 -0.004 -0.4414 0.036 -0.647 0.12 -0.2054 0.082 -0.392 0.206 -0.5486 0.362 -0.1566 0.156 -0.28 0.344 -0.363 0.548 -0.0828 0.206 -0.1234 0.426 -0.1194 0.648v4.81c-0.0044 0.222 0.036 0.442 0.1188 0.648 0.0828 0.204 0.2064 0.392 0.363 0.548 0.1566 0.156 0.3434 0.28 0.549 0.362 0.2056 0.084 0.4256 0.124 0.6472 0.12H218.8Z" stroke-width="1"></path><path id="vector_10" fill="#ffffff" d="M175.558 245.856H84.4c-0.2214 -0.004 -0.4416 0.036 -0.647 0.12 -0.2054 0.082 -0.392 0.206 -0.5486 0.362 -0.1566 0.156 -0.28 0.344 -0.363 0.548 -0.0828 0.206 -0.1234 0.426 -0.1194 0.648v4.81c-0.0044 0.222 0.036 0.442 0.1188 0.648 0.0828 0.204 0.2062 0.392 0.363 0.548 0.1566 0.156 0.3434 0.28 0.549 0.362 0.2054 0.084 0.4256 0.124 0.6472 0.12h91.158c0.2214 0.004 0.4416 -0.036 0.647 -0.12 0.2054 -0.082 0.392 -0.206 0.5486 -0.362 0.1566 -0.158 0.28 -0.344 0.363 -0.55 0.0828 -0.204 0.1234 -0.424 0.1194 -0.646v-4.81c0.0038 -0.222 -0.037 -0.442 -0.12 -0.646 -0.083 -0.206 -0.2064 -0.392 -0.363 -0.55 -0.1566 -0.156 -0.343 -0.28 -0.5484 -0.362 -0.2052 -0.084 -0.4252 -0.124 -0.6466 -0.12Z" stroke-width="1"></path><path id="vector_11" fill="#ffffff" d="M175.558 261.63H84.4c-0.2216 -0.004 -0.4418 0.036 -0.6472 0.12 -0.2056 0.082 -0.3924 0.206 -0.549 0.362 -0.1568 0.156 -0.2802 0.344 -0.363 0.548 -0.0828 0.206 -0.1232 0.426 -0.1188 0.648v4.81c-0.004 0.222 0.0366 0.442 0.1194 0.648 0.083 0.204 0.2064 0.392 0.363 0.548 0.1566 0.156 0.3432 0.28 0.5486 0.362 0.2054 0.084 0.4256 0.124 0.647 0.12h91.158c0.2214 0.004 0.4414 -0.036 0.6466 -0.12 0.2054 -0.082 0.3918 -0.206 0.5484 -0.362 0.1566 -0.158 0.28 -0.344 0.363 -0.55 0.083 -0.204 0.1238 -0.424 0.12 -0.646v-4.81c0.004 -0.222 -0.0366 -0.442 -0.1194 -0.646 -0.083 -0.206 -0.2064 -0.392 -0.363 -0.55 -0.1566 -0.156 -0.3432 -0.28 -0.5486 -0.362 -0.2054 -0.084 -0.4256 -0.124 -0.647 -0.12Z" stroke-width="1"></path><path id="vector_12" fill="#ffffff" d="M219.968 261.63H183.724c-0.2216 -0.004 -0.4416 0.036 -0.647 0.12 -0.2054 0.082 -0.392 0.206 -0.5486 0.362 -0.1566 0.158 -0.2802 0.344 -0.363 0.55 -0.083 0.204 -0.1236 0.424 -0.1194 0.646v4.81c-0.0038 0.222 0.037 0.442 0.12 0.646 0.083 0.206 0.2064 0.392 0.363 0.55 0.1566 0.156 0.343 0.28 0.5484 0.362 0.2052 0.084 0.4252 0.124 0.6466 0.12h36.244c0.222 0.004 0.442 -0.036 0.646 -0.12 0.206 -0.082 0.392 -0.206 0.548 -0.362 0.158 -0.158 0.28 -0.344 0.364 -0.55 0.082 -0.204 0.124 -0.424 0.12 -0.646v-4.81c0.004 -0.222 -0.036 -0.442 -0.12 -0.646 -0.082 -0.206 -0.206 -0.392 -0.362 -0.55 -0.158 -0.156 -0.344 -0.28 -0.55 -0.362 -0.204 -0.084 -0.424 -0.124 -0.646 -0.12Z" stroke-width="1"></path></g></g><g id="smile 2"><path id="vector_13" fill="#ffffff" d="M301.572 188.9738c-2.006 -0.404 -4.078 -0.339 -6.054 0.1902s-3.804 1.5082 -5.338 2.8604c-1.536 1.3522 -2.738 3.0412 -3.512 4.9348 -0.774 1.8936 -1.1 3.9408 -0.952 5.9808 0.146 2.04 0.764 4.02 1.804 5.782 1.038 1.762 2.472 3.26 4.186 4.378 1.714 1.116 3.662 1.822 5.694 2.062 2.032 0.238 4.092 0.004 6.018 -0.684 12.16 -4.38 11.67 -22.7182 -1.846 -25.5042Z" stroke-width="1"></path><g id="group_3"><path id="vector_14" fill="#256d85" d="M290.05 203.348c1.266 0 2.294 -0.902 2.294 -2.014 0 -1.112 -1.028 -2.0142 -2.294 -2.0142 -1.268 0 -2.294 0.9022 -2.294 2.0142s1.026 2.014 2.294 2.014Z" stroke-width="1"></path><path id="vector_15" fill="#256d85" d="M308.004 203.74c1.266 0 2.294 -0.902 2.294 -2.014 0 -1.112 -1.028 -2.014 -2.294 -2.014s-2.294 0.902 -2.294 2.014c0 1.112 1.028 2.014 2.294 2.014Z" stroke-width="1"></path></g><path id="vector_16" fill="#06283d" d="M303.928 188.5058c-2.792 -0.9976 -5.822 -1.116 -8.682 -0.3394 -2.86 0.7766 -5.414 2.4112 -7.318 4.6834 -1.884 2.2866 -3.014 5.1006 -3.234 8.0562 -0.22 2.954 0.48 5.904 2.004 8.444 1.524 2.542 3.798 4.548 6.508 5.744 2.712 1.196 5.726 1.524 8.63 0.938 3.224 -0.704 6.114 -2.478 8.198 -5.036 2.084 -2.558 3.238 -5.748 3.276 -9.046 -0.01 -2.9294 -0.914 -5.7854 -2.592 -8.1876 -1.676 -2.402 -4.044 -4.2358 -6.79 -5.2566Zm7.882 13.5562c0.006 2.622 -0.798 5.182 -2.302 7.328 -1.504 2.148 -3.632 3.78 -6.098 4.672 -2.556 0.932 -5.342 1.026 -7.954 0.268 -2.612 -0.76 -4.914 -2.332 -6.572 -4.488 -1.656 -2.158 -2.582 -4.788 -2.642 -7.506 -0.062 -2.7202 0.748 -5.3882 2.308 -7.6166 1.56 -2.2286 3.79 -3.9014 6.366 -4.7756 2.576 -0.8742 5.362 -0.904 7.956 -0.0852 2.594 0.819 4.86 2.4438 6.468 4.6384 1.606 2.1946 2.472 4.8446 2.47 7.565Z" stroke-width="1"></path><path id="vector_17" fill="#06283d" d="M293.852 196.3598c-0.2 -0.005 -0.396 0.0308 -0.582 0.1048 -0.184 0.0742 -0.352 0.1852 -0.492 0.3264 -0.142 0.141 -0.252 0.3094 -0.324 0.4946 -0.074 0.1852 -0.108 0.3832 -0.102 0.5822 0 0.2992 0.088 0.5918 0.254 0.8406 0.166 0.2488 0.402 0.4426 0.68 0.5568 0.276 0.1144 0.58 0.144 0.874 0.085 0.292 -0.0588 0.562 -0.2034 0.772 -0.4156 0.212 -0.212 0.354 -0.482 0.412 -0.7756 0.058 -0.2936 0.026 -0.5976 -0.09 -0.8736 -0.116 -0.2758 -0.31 -0.511 -0.56 -0.6758 -0.25 -0.1648 -0.542 -0.2518 -0.842 -0.2498Z" stroke-width="1"></path><path id="vector_18" fill="#06283d" d="M303.642 196.3598c-0.2 -0.0052 -0.398 0.0302 -0.582 0.1042 -0.186 0.0742 -0.352 0.1852 -0.494 0.3264 -0.14 0.1412 -0.25 0.3096 -0.324 0.4948 -0.072 0.1854 -0.106 0.3836 -0.1 0.5826 0 0.2992 0.088 0.5918 0.254 0.8406 0.166 0.2488 0.402 0.4426 0.678 0.5568 0.278 0.1144 0.582 0.144 0.874 0.0852 0.294 -0.059 0.564 -0.2036 0.774 -0.4156 0.212 -0.2122 0.354 -0.4822 0.412 -0.7758 0.058 -0.2936 0.026 -0.5976 -0.09 -0.8734 -0.116 -0.276 -0.31 -0.5112 -0.56 -0.676 -0.25 -0.1648 -0.542 -0.2516 -0.842 -0.2498Z" stroke-width="1"></path><path id="vector_19" fill="#06283d" d="M302.922 202.496c-0.356 0.604 -0.838 1.122 -1.414 1.522 -0.576 0.4 -1.23 0.67 -1.92 0.794 -1.038 0.216 -2.118 0.13 -3.11 -0.246s-1.856 -1.028 -2.49 -1.878c-0.08 -0.176 -0.222 -0.316 -0.398 -0.394 -0.174 -0.08 -0.372 -0.094 -0.558 -0.038 -0.184 0.054 -0.342 0.174 -0.446 0.336 -0.104 0.162 -0.144 0.358 -0.116 0.548 1 3.77 9.26 5.032 11.834 0.104 0.08 -0.182 0.09 -0.386 0.026 -0.576 -0.064 -0.188 -0.196 -0.344 -0.37 -0.438 -0.176 -0.096 -0.38 -0.12 -0.572 -0.07 -0.192 0.048 -0.358 0.168 -0.466 0.336Z" stroke-width="1"></path></g><g id="smile 1"><path id="vector_20" fill="#ffffff" d="M130.2 54.234c-2.6828 -0.546 -5.469 -0.2492 -7.9766 0.8498 -2.5076 1.0992 -4.614 2.9468 -6.0306 5.2898 -1.4166 2.343 -2.074 5.0666 -1.882 7.7978 0.1918 2.7312 1.2234 5.3362 2.9536 7.4582 1.7302 2.122 4.0742 3.657 6.711 4.3948 2.6366 0.7376 5.4368 0.642 8.017 -0.2738 2.5802 -0.9158 4.814 -2.6072 6.3954 -4.8422 1.5816 -2.235 2.4332 -4.9044 2.4382 -7.6424 0.0008 -3.0636 -1.056 -6.0338 -2.9922 -8.4082 -1.936 -2.3744 -4.6326 -4.0078 -7.6338 -4.6238Z" stroke-width="1"></path><g id="group_4"><path id="vector_21" fill="#256d85" d="M118.2282 64.9178c-0.387 0.0508 -0.751 0.212 -1.0486 0.4642 -0.2976 0.2524 -0.5162 0.585 -0.6298 0.9584 -0.1134 0.3732 -0.1168 0.7714 -0.01 1.1466 0.107 0.3752 0.3198 0.7118 0.613 0.9692 0.2932 0.2574 0.6544 0.4248 1.0404 0.4824 0.3858 0.0574 0.7802 0.0024 1.1356 -0.1584 0.3556 -0.1608 0.6572 -0.4208 0.8688 -0.7486 0.2116 -0.3278 0.3244 -0.7096 0.3246 -1.0998 -0.0476 -0.5672 -0.3132 -1.094 -0.7408 -1.4696 -0.4278 -0.3754 -0.9846 -0.5706 -1.5532 -0.5444Z" stroke-width="1"></path><path id="vector_22" fill="#256d85" d="M136.8542 64.918c-0.387 0.0504 -0.7514 0.2112 -1.0492 0.4634 -0.298 0.252 -0.517 0.5846 -0.6306 0.958 -0.1138 0.3734 -0.1176 0.7716 -0.0108 1.147 0.1068 0.3754 0.3194 0.712 0.6126 0.9696 0.2932 0.2576 0.6544 0.4252 1.0404 0.4828 0.386 0.0576 0.7804 0.0028 1.136 -0.158 0.3556 -0.1608 0.6574 -0.4208 0.869 -0.7486 0.2118 -0.328 0.3244 -0.7098 0.3246 -1.1002 -0.0436 -0.5684 -0.3078 -1.0972 -0.736 -1.4736 -0.4282 -0.3762 -0.9866 -0.5702 -1.556 -0.5404Z" stroke-width="1"></path></g><path id="vector_23" fill="#06283d" d="M132.4962 53.822c-2.8594 -1.048 -5.9786 -1.1568 -8.904 -0.3104 -2.9254 0.8462 -5.5046 2.6036 -7.3628 5.0162 -1.8582 2.4128 -2.8984 5.3554 -2.9694 8.4 -0.071 3.0444 0.8308 6.0322 2.5742 8.5292 1.7436 2.4968 4.238 4.3724 7.1208 5.3544 2.8828 0.9818 6.0036 1.0188 8.9086 0.1052 2.9052 -0.9134 5.4432 -2.7296 7.2454 -5.1846 1.802 -2.4548 2.7742 -5.4206 2.7752 -8.466 -0.0262 -2.9262 -0.9368 -5.7764 -2.6122 -8.1756 -1.6756 -2.3994 -4.0376 -4.236 -6.7758 -5.2684ZM117.7182 75.4c-1.7228 -2.0904 -2.7356 -4.6748 -2.8916 -7.3792 -0.1558 -2.7044 0.553 -5.3882 2.024 -7.6628 1.471 -2.2746 3.6278 -4.022 6.1582 -4.989 2.5302 -0.967 5.3026 -1.1038 7.9158 -0.39 2.6132 0.7136 4.9314 2.2404 6.6188 4.3594 1.6876 2.119 2.6568 4.72 2.7674 7.4266 0.1108 2.7066 -0.643 5.3782 -2.1518 7.6278 -1.509 2.2496 -3.6948 3.9606 -6.2408 4.8852 -2.4784 0.8936 -5.172 1.0006 -7.7134 0.3064 -2.5412 -0.694 -4.8066 -2.1552 -6.4866 -4.1844Z" stroke-width="1"></path><path id="vector_24" fill="#06283d" d="M122.424 61.564c-0.199 -0.0052 -0.3972 0.0302 -0.582 0.1042 -0.185 0.074 -0.3528 0.185 -0.4932 0.3262 -0.1404 0.1412 -0.2506 0.3096 -0.3236 0.495 -0.073 0.1852 -0.1074 0.3836 -0.1012 0.5826 -0.0004 0.2992 0.0882 0.5916 0.2542 0.8404 0.1662 0.2488 0.4026 0.4428 0.679 0.557 0.2764 0.1144 0.5806 0.144 0.874 0.085 0.2932 -0.0588 0.5624 -0.2034 0.7734 -0.4156 0.211 -0.212 0.3542 -0.482 0.4116 -0.7756 0.0572 -0.2936 0.026 -0.5978 -0.0898 -0.8736 -0.1158 -0.2758 -0.3108 -0.511 -0.5606 -0.6758 -0.2496 -0.1648 -0.5426 -0.2518 -0.8418 -0.2498Z" stroke-width="1"></path><path id="vector_25" fill="#06283d" d="M132.2102 61.622c-0.199 -0.0052 -0.3968 0.0302 -0.5816 0.1042 -0.1848 0.0738 -0.3526 0.1846 -0.493 0.3256 -0.1404 0.141 -0.2506 0.3092 -0.3238 0.4942 -0.0732 0.1852 -0.1078 0.3832 -0.1016 0.582 -0.0008 0.2994 0.0874 0.592 0.2532 0.8412 0.1658 0.249 0.402 0.4432 0.6784 0.5578 0.2764 0.1146 0.5808 0.1444 0.8742 0.0858s0.5628 -0.2032 0.774 -0.4152c0.2112 -0.212 0.3546 -0.482 0.412 -0.7756 0.0576 -0.2938 0.0264 -0.5978 -0.0894 -0.8738 -0.1156 -0.276 -0.3108 -0.5114 -0.5604 -0.6762 -0.2498 -0.165 -0.5428 -0.2518 -0.842 -0.25Z" stroke-width="1"></path><path id="vector_26" fill="#06283d" d="M131.5442 67.7618c-1.81 3.478 -7.542 2.82 -8.926 0.186 -0.0806 -0.1748 -0.2214 -0.3148 -0.3968 -0.3942 -0.1754 -0.0794 -0.3736 -0.0928 -0.5582 -0.0378 -0.1844 0.0548 -0.343 0.1746 -0.4464 0.337 -0.1034 0.1624 -0.1448 0.3566 -0.1166 0.547 0.2148 0.5846 0.5478 1.1186 0.9778 1.569 0.43 0.4504 0.9482 0.8074 1.5222 1.049 1.1458 0.5076 2.3892 0.7568 3.642 0.73 1.1508 0.0172 2.2856 -0.2722 3.2876 -0.8384 1.002 -0.5662 1.8354 -1.3888 2.4144 -2.3836 0.082 -0.1836 0.0918 -0.3914 0.0274 -0.582 -0.0644 -0.1904 -0.1982 -0.3498 -0.3748 -0.4462 -0.1764 -0.0962 -0.3828 -0.1226 -0.578 -0.0736 -0.195 0.049 -0.3644 0.1696 -0.4746 0.3378Z" stroke-width="1"></path></g><g id="check box 2"><path id="vector_27" fill="#ffffff" d="M257.218 309.73c0.006 -0.424 -0.076 -0.846 -0.238 -1.24 -0.162 -0.392 -0.4 -0.748 -0.704 -1.046 -0.304 -0.298 -0.664 -0.532 -1.058 -0.686 -0.396 -0.156 -0.82 -0.228 -1.244 -0.216 -16.668 0 -16.6 -0.168 -17.674 0.504 -0.436 0.29 -0.794 0.68 -1.048 1.136 -0.254 0.458 -0.392 0.97 -0.406 1.492 0 17.574 -0.056 16.36 0.112 16.948 0.168 0.59 0.508 1.118 0.976 1.516 0.468 0.398 1.042 0.65 1.652 0.722 0.2 0.04 -1.524 0 16.444 0 0.41 0.002 0.816 -0.078 1.196 -0.234 0.378 -0.158 0.722 -0.388 1.01 -0.678 0.29 -0.292 0.518 -0.638 0.672 -1.018 0.154 -0.38 0.23 -0.786 0.226 -1.196 0.066 -1.45 0.084 -16.004 0.084 -16.004Z" stroke-width="1"></path><path id="vector_28" fill="#06283d" d="M258.334 309.724c-0.01 -1.122 -0.46 -2.194 -1.252 -2.988 -0.794 -0.794 -1.866 -1.244 -2.988 -1.254H238.2c-1.068 -0.03 -2.108 0.348 -2.908 1.058 -0.798 0.708 -1.298 1.696 -1.394 2.76 -0.016 0.2 -0.09 16.758 0.126 17.564 0.186 0.67 0.534 1.282 1.014 1.786 0.478 0.502 1.074 0.88 1.732 1.1 0.636 0.228 0.308 0.174 17.37 0.168 0.56 0 1.114 -0.112 1.632 -0.328 0.516 -0.218 0.984 -0.536 1.374 -0.938 0.392 -0.4 0.7 -0.876 0.904 -1.398 0.204 -0.52 0.304 -1.078 0.29 -1.638 0 0 0.004 -15.16 -0.006 -15.892Zm-4.248 18.692h-16.376c-0.526 -0.08 -1.018 -0.31 -1.416 -0.662 -0.398 -0.352 -0.688 -0.812 -0.832 -1.324 -0.09 -0.286 -0.064 -1.082 -0.06 -16.704 0.002 -0.44 0.116 -0.872 0.33 -1.256 0.214 -0.384 0.522 -0.71 0.894 -0.944 0.864 -0.54 0.562 -0.436 17.348 -0.424 0.358 -0.012 0.716 0.05 1.05 0.18 0.336 0.13 0.64 0.326 0.896 0.578 0.256 0.252 0.46 0.552 0.596 0.884 0.138 0.332 0.206 0.688 0.202 1.046 0 0 0.012 15.272 -0.036 16.16 -0.04 0.664 -0.33 1.288 -0.812 1.744 -0.482 0.458 -1.12 0.716 -1.784 0.722Z" stroke-width="1"></path><path id="vector_29" fill="#06283d" d="M252.4 312.386c-0.068 0.086 -5.932 7.6 -7.48 9.6 -1.6 -1.654 -4.432 -4.584 -4.638 -4.788 -0.072 -0.072 -0.158 -0.13 -0.252 -0.17 -0.094 -0.038 -0.194 -0.058 -0.296 -0.06 -0.102 0 -0.204 0.02 -0.298 0.058 -0.094 0.04 -0.18 0.096 -0.252 0.168 -0.072 0.072 -0.13 0.158 -0.17 0.252 -0.038 0.094 -0.06 0.194 -0.06 0.296 0 0.102 0.02 0.204 0.058 0.298 0.04 0.094 0.096 0.18 0.168 0.252 5.25 5.346 5.278 5.67 5.842 5.672 0.48 0 -0.078 0.532 8.558 -10.582 0.634 -0.798 -0.548 -1.8 -1.18 -0.996Z" stroke-width="1"></path></g><g id="check box 1"><path id="vector_30" fill="#466bf8" d="M200.056 177.564c0.006 -0.4248 -0.0754 -0.8464 -0.2372 -1.2392 -0.162 -0.393 -0.4016 -0.749 -0.7046 -1.0468 -0.3032 -0.2978 -0.6632 -0.5314 -1.059 -0.6864 -0.3956 -0.155 -0.8184 -0.2282 -1.2432 -0.2156 -16.67 0 -16.6 -0.17 -17.674 0.504 -0.4356 0.289 -0.7952 0.6788 -1.0484 1.1362 -0.253 0.4576 -0.3922 0.9692 -0.4056 1.4918 0 17.574 -0.056 16.36 0.112 16.948 0.169 0.5902 0.5088 1.1172 0.9762 1.515 0.4676 0.3978 1.0422 0.6486 1.6518 0.721 0.2 0.042 -1.546 0 16.388 0 0.6022 -0.0024 1.191 -0.1776 1.6966 -0.5048 0.5056 -0.3274 0.9066 -0.7928 1.1554 -1.3412 0.36 -0.786 0.392 -17.282 0.392 -17.282Z" stroke-width="1"></path><path id="vector_31" fill="#06283d" d="M201.172 177.5558c-0.016 -1.1248 -0.466 -2.2002 -1.2558 -3.0008 -0.7904 -0.8008 -1.8596 -1.2648 -2.9842 -1.2952 -2.494 -0.032 -15.76 0 -15.892 0 -1.0682 -0.0304 -2.1078 0.3476 -2.9072 1.057 -0.7992 0.7094 -1.298 1.6968 -1.3948 2.761 -0.016 0.2 -0.092 16.746 0.126 17.562 0.184 0.665 0.528 1.2748 1.0018 1.7764 0.4736 0.5016 1.0628 0.8798 1.7162 1.1016 0.856 0.294 0.4 0.24 17.4 0.234 0.5604 0.0002 1.1152 -0.1118 1.6316 -0.3294 0.5164 -0.2174 0.9842 -0.5362 1.3756 -0.9372 0.3908 -0.4012 0.6988 -0.8764 0.9028 -1.3982 0.206 -0.5216 0.304 -1.079 0.29 -1.6392 0 0 0 -15.158 -0.01 -15.892Zm-1.85 17.082c-0.219 0.4544 -0.5586 0.8396 -0.982 1.1138 -0.4234 0.274 -0.914 0.4264 -1.418 0.4402H180.6c-0.5256 -0.08 -1.017 -0.3098 -1.4156 -0.6616 -0.3986 -0.3518 -0.6876 -0.8108 -0.8324 -1.3224 -0.088 -0.286 -0.062 -1.082 -0.058 -16.704 0.0024 -0.4394 0.1152 -0.871 0.328 -1.2556 0.2128 -0.3844 0.5188 -0.709 0.89 -0.9444 0.878 -0.548 0.654 -0.438 17.4 -0.426 0.3586 -0.0114 0.716 0.05 1.0502 0.1804 0.3344 0.1304 0.639 0.327 0.8954 0.5782 0.2564 0.251 0.4592 0.5514 0.5964 0.883 0.1372 0.3316 0.206 0.6876 0.202 1.0464 0.02 13.704 0.118 16.086 -0.334 17.072Z" stroke-width="1"></path><path id="vector_32" fill="#06283d" d="M195.244 180.1638c-0.068 0.086 -5.932 7.6 -7.48 9.61 -1.6 -1.654 -4.432 -4.584 -4.638 -4.79 -0.1474 -0.1352 -0.341 -0.2084 -0.541 -0.2046 -0.1998 0.004 -0.3906 0.0846 -0.5326 0.2252 -0.142 0.1408 -0.2244 0.3308 -0.23 0.5306 -0.0058 0.2 0.0658 0.3942 0.1996 0.5428 5.548 5.752 5.358 5.656 5.8 5.656 0.1132 -0.004 0.2246 -0.0304 0.3276 -0.0778 0.103 -0.0474 0.1956 -0.1148 0.2724 -0.1982 5.678 -7.432 7.496 -9.506 8 -10.316 0.111 -0.158 0.1584 -0.3518 0.133 -0.5432 -0.0256 -0.1914 -0.1222 -0.366 -0.2708 -0.4894 -0.1484 -0.1232 -0.338 -0.1862 -0.5308 -0.176 -0.1928 0.01 -0.3746 0.0924 -0.5094 0.2306Z" stroke-width="1"></path></g><g id="person 2"><path id="vector_33" fill="#256d85" d="M340.5 346.534c27.338 0 49.5 -22.162 49.5 -49.5s-22.162 -49.5 -49.5 -49.5 -49.5 22.162 -49.5 49.5 22.162 49.5 49.5 49.5Z" stroke-width="1"></path><path id="vector_34" fill="#ffffff" d="m336.082 285.064 -0.224 5.762c1.374 0.808 2.918 1.29 4.508 1.406 1.59 0.116 3.186 -0.136 4.664 -0.736l0.112 -6.32c-2.974 0.788 -6.106 0.748 -9.06 -0.112Z" stroke-width="1"></path><path id="vector_35" fill="#ffffff" d="M367.712 266.786c-1.008 -0.924 -2.314 -1.462 -3.68 -1.514 -1.368 -0.054 -2.71 0.38 -3.788 1.224 -0.418 0.274 -0.516 -0.6 -0.614 -1.12 -0.908 -4.412 -0.888 -8.962 0.054 -13.366 -3.262 -0.42 -6.384 -1.582 -9.128 -3.394 -2.742 -1.814 -5.034 -4.23 -6.7 -7.066 -3.416 3.04 -7.844 4.696 -12.416 4.642 -3.192 4.86 -5.572 10.204 -7.048 15.828 -3.274 13.688 4.916 22.67 16 23.054 7.49 0.258 12.898 -4.526 17.6 -9.238 0.2 -0.2 0.8 0.114 1.344 0.4 6.6 2.188 12.144 -5.328 8.376 -9.45Z" stroke-width="1"></path><path id="vector_36" fill="#466bf8" d="M364.16 310.066c-3.556 -9.086 -9.29 -16.6 -18.57 -19.352l-0.056 1.23c-5.42 1.8 -9.29 0.164 -10.292 -0.838l0.056 -1.51c-17.876 1.1 -30.188 16.278 -37.026 32.832 3.456 5.746 8.052 10.726 13.504 14.632 5.45 3.906 11.644 6.656 18.196 8.08 6.554 1.426 13.33 1.494 19.91 0.204 6.582 -1.29 12.83 -3.912 18.36 -7.704 0 -9.902 -0.472 -18.352 -4.082 -27.574Z" stroke-width="1"></path><path id="vector_37" fill="#06283d" d="M377 268.072c4.9 -7.12 3.918 -17.706 1.056 -24.698 -2.446 -5.976 -7.906 -13.45 -15.248 -14.844 -1.324 -0.272 -2.684 -0.312 -4.022 -0.116 -1.524 -1.49 -3.534 -2.38 -5.662 -2.504 -2.126 -0.124 -4.228 0.524 -5.914 1.826 -2.29 -1.808 -5.178 -2.686 -8.086 -2.458 -8.846 0.766 -10.44 13.736 -13.612 16.748 -1.182 1.144 -2.756 1.794 -4.4 1.82 -0.146 -0.016 -0.292 0.014 -0.418 0.086 -0.128 0.072 -0.228 0.182 -0.29 0.314 -0.59 1.214 3.462 4.9 8.328 4.318 -2.988 5.176 -6.282 12.526 -6.282 19.782 -0.034 3.764 1.172 7.434 3.434 10.442 2.264 3.008 5.454 5.186 9.08 6.196l-0.136 3.372c-18.186 1.6 -29.972 16.43 -37.38 32.93 -0.454 1.014 -0.574 0.906 1.318 3.666 6.518 9.658 16.188 16.752 27.358 20.07 11.168 3.316 23.144 2.65 33.876 -1.886 3.148 -1.32 6.148 -2.97 8.948 -4.922 0.118 -0.096 0.212 -0.22 0.274 -0.358 0.064 -0.138 0.094 -0.29 0.09 -0.442 0.278 -19.074 -5.09 -42.238 -23.2 -47.91l0.096 -4.352c3.326 -1.144 6.406 -2.902 9.084 -5.182 -0.514 3.232 -1.316 10.4 3.672 12.272 2.986 1.122 7.6 -0.368 10.646 -1.984 9.296 -4.94 16.814 -18.828 7.39 -22.186Zm-50.506 9.218c-5.854 -8.64 -0.438 -21.586 5.062 -30.53 4.398 -0.02 8.65 -1.57 12.028 -4.386 1.678 2.69 3.918 4.984 6.566 6.728 2.648 1.744 5.64 2.894 8.774 3.374 -0.928 4.298 -0.91 8.748 0.054 13.038 0.296 1.774 1.138 1.744 1.38 1.456 7.266 -4.702 12.294 6.156 2.658 9.116 -0.63 0.22 -1.3 0.302 -1.966 0.24 -0.664 -0.062 -1.308 -0.264 -1.888 -0.596 -0.944 -0.386 -1.116 -0.86 -2 0.19 -3.938 4.666 -9.906 8.504 -16.076 8.69 -2.834 -0.004 -5.63 -0.668 -8.164 -1.938s-4.738 -3.114 -6.438 -5.382h0.01Zm8.4 14.17c0.816 0.61 1.738 1.068 2.72 1.346 -1.6 1.856 -4.2 4.904 -5.264 6.164 -1.41 -2.444 -2.522 -5.05 -3.312 -7.758 1.872 -0.558 3.798 -0.918 5.744 -1.074 -0.032 0.776 -0.112 1.102 0.108 1.322h0.004Zm1.424 -0.914 0.188 -4.846c2.644 0.68 5.412 0.72 8.074 0.116l-0.096 5.33c-1.326 0.486 -2.74 0.684 -4.15 0.582 -1.408 -0.104 -2.78 -0.508 -4.02 -1.182h0.004Zm3.752 10.738c-0.258 -3.856 -0.414 -6.664 -0.454 -8.084 2.064 0.222 4.152 -0.066 6.08 -0.838 0.4 -0.13 0.342 -0.472 0.368 -1.036 1.726 0.558 3.382 1.318 4.932 2.262 -2.718 3.678 -6.552 6.378 -10.93 7.696h0.004Zm-12.544 -9.768c0.938 3.218 2.326 6.286 4.122 9.114 0.094 0.094 0.204 0.168 0.328 0.216 0.122 0.05 0.254 0.074 0.386 0.07 0.422 -0.042 0.136 0.12 5.822 -6.472 0.52 8.354 0.178 8.516 1.2 8.516 2.542 0 8.342 -2.72 12.92 -8.552 0.348 0.244 0.684 0.504 1.028 0.778 -5.094 13.952 1.148 20.412 -2.242 34.788 -0.62 3.058 -1.886 5.95 -3.712 8.48 -0.626 0.814 0.67 1.694 1.294 0.89 3.988 -5.146 4.844 -13.292 5.026 -16.554 0.558 -9.974 -2.894 -15.14 0.898 -26.538 6.522 6.278 10.444 14.682 12.316 26.366 0.718 4.86 1.004 9.776 0.854 14.686 -8.738 6.006 -19.21 8.97 -29.8 8.434 -10.59 -0.534 -20.71 -4.536 -28.8 -11.39 -4.072 -3.416 -7.562 -7.468 -10.336 -12 6.996 -16.47 16.646 -26.838 28.692 -30.832h0.004Z" stroke-width="1"></path><path id="vector_38" fill="#06283d" d="M338.044 255c-0.222 4.2 -1.916 9.084 -6.012 10.226 -0.194 0.058 -0.358 0.19 -0.458 0.366 -0.1 0.176 -0.128 0.384 -0.078 0.582 0.05 0.196 0.174 0.366 0.346 0.472 0.172 0.108 0.38 0.144 0.578 0.102 5.036 -1.468 6.6 -7.118 7.07 -10.448 0.068 -0.422 0.104 -0.846 0.112 -1.274 -0.006 -0.2 -0.09 -0.39 -0.232 -0.532 -0.142 -0.14 -0.334 -0.22 -0.534 -0.224 -0.202 -0.002 -0.396 0.072 -0.542 0.208 -0.148 0.134 -0.238 0.322 -0.25 0.522Z" stroke-width="1"></path><path id="vector_39" fill="#06283d" d="M352.962 257.91c-0.572 -3.382 -4.25 -4.576 -5.8 -4.934 -0.246 -0.068 -0.5 -0.108 -0.756 -0.118 -0.98 -0.162 -1.2 1.38 -0.082 1.552 0.522 0.054 1.036 0.16 1.536 0.316 0.868 0.184 1.664 0.612 2.296 1.234 0.632 0.624 1.072 1.414 1.268 2.28 0.152 1.002 1.714 0.704 1.538 -0.33Z" stroke-width="1"></path><path id="vector_40" fill="#06283d" d="M336.96 248.828c-0.7 -0.504 -1.546 -0.766 -2.406 -0.742 -0.862 0.022 -1.694 0.326 -2.366 0.866 -0.158 0.112 -0.268 0.28 -0.306 0.472 -0.038 0.19 -0.004 0.386 0.098 0.552 0.102 0.166 0.262 0.286 0.45 0.336 0.186 0.052 0.386 0.03 0.558 -0.062 0.408 -0.33 0.906 -0.53 1.43 -0.576 0.522 -0.046 1.048 0.066 1.508 0.318 0.798 0.642 1.82 -0.514 1.034 -1.164Z" stroke-width="1"></path><path id="vector_41" fill="#06283d" d="M346.35 262.894c-0.234 -0.172 -0.424 -0.394 -0.556 -0.652 -0.132 -0.258 -0.202 -0.544 -0.206 -0.834 0.016 -0.192 -0.038 -0.384 -0.152 -0.54 -0.114 -0.154 -0.282 -0.264 -0.47 -0.306 -0.188 -0.042 -0.386 -0.016 -0.556 0.076 -0.168 0.092 -0.3 0.242 -0.368 0.422 -0.124 0.64 -0.004 1.302 0.336 1.858 -0.316 0.238 -0.572 0.542 -0.754 0.894 -0.182 0.35 -0.282 0.736 -0.294 1.13 -0.092 2.436 2.748 2.712 3.62 0.506 0.228 -0.426 0.292 -0.92 0.182 -1.39 -0.11 -0.47 -0.388 -0.884 -0.782 -1.164Z" stroke-width="1"></path><path id="vector_42" fill="#06283d" d="M365.42 269c-0.468 -0.454 -1.074 -0.742 -1.722 -0.818 -0.648 -0.076 -1.304 0.062 -1.864 0.396 -0.588 0.37 -1.096 0.852 -1.496 1.418 -0.6 0.6 0.304 1.9 1.25 0.942 0.786 -1 1.846 -1.722 2.774 -0.852 0.838 0.784 1.74 -0.556 1.058 -1.086Z" stroke-width="1"></path><path id="vector_43" fill="#06283d" d="M331.492 258.272c-1.318 -1 -0.2 -1.91 -1.254 -2.26 -0.94 -0.312 -1.486 0.892 -0.716 2.27 -1.31 0.886 -1.532 3.342 0 3.976 1.984 0.83 3.838 -2.56 1.97 -3.986Z" stroke-width="1"></path><path id="vector_44" fill="#06283d" d="M342.8 275.556c0 -0.34 -0.296 -0.738 -0.928 -0.716 -3.668 0.69 -8.69 0.412 -11.636 -1.756 -0.128 -0.086 -0.28 -0.134 -0.436 -0.132 -0.154 0 -0.306 0.046 -0.434 0.134 -0.128 0.088 -0.226 0.214 -0.282 0.358 -0.054 0.144 -0.066 0.304 -0.03 0.454 0.41 2.392 1.672 4.556 3.554 6.088 2.956 2.176 8.1 1.818 9.702 -1.766 0.396 -0.83 0.564 -1.748 0.49 -2.664Zm-1.516 1c-0.774 4.046 -7.47 5.2 -10.11 -1.084 3.208 1.264 6.698 1.636 10.1 1.08l0.01 0.004Z" stroke-width="1"></path><path id="vector_45" fill="#256d85" d="M347.1 274.382c1.854 0 3.356 -1.502 3.356 -3.356 0 -1.854 -1.502 -3.356 -3.356 -3.356 -1.854 0 -3.356 1.502 -3.356 3.356 0 1.854 1.502 3.356 3.356 3.356Z" stroke-width="1"></path><path id="vector_46" fill="#256d85" d="M324.616 266.384c1.854 0 3.356 -1.502 3.356 -3.356 0 -1.854 -1.502 -3.356 -3.356 -3.356 -1.854 0 -3.356 1.502 -3.356 3.356 0 1.854 1.502 3.356 3.356 3.356Z" stroke-width="1"></path><path id="vector_47" fill="#06283d" d="M334.42 303.188c-0.32 0 -0.632 0.096 -0.898 0.274 -0.266 0.176 -0.474 0.43 -0.596 0.726 -0.124 0.294 -0.156 0.62 -0.092 0.934 0.062 0.314 0.216 0.602 0.442 0.828 0.226 0.226 0.514 0.38 0.828 0.444 0.314 0.062 0.64 0.03 0.936 -0.092 0.294 -0.124 0.548 -0.33 0.726 -0.596 0.178 -0.266 0.272 -0.58 0.272 -0.9 0 -0.428 -0.17 -0.84 -0.474 -1.144 -0.304 -0.304 -0.714 -0.474 -1.144 -0.474Z" stroke-width="1"></path><path id="vector_48" fill="#06283d" d="M332.348 310.6c-0.32 0 -0.634 0.094 -0.9 0.272 -0.266 0.178 -0.472 0.432 -0.596 0.726 -0.122 0.296 -0.154 0.622 -0.09 0.936 0.062 0.314 0.216 0.602 0.442 0.828 0.228 0.226 0.516 0.38 0.83 0.442 0.314 0.062 0.638 0.03 0.934 -0.092 0.296 -0.122 0.548 -0.33 0.726 -0.596 0.178 -0.268 0.272 -0.58 0.272 -0.9 0 -0.43 -0.172 -0.84 -0.474 -1.144 -0.304 -0.302 -0.716 -0.472 -1.144 -0.472Z" stroke-width="1"></path></g><g id="person 1"><path id="vector_49" fill="#256d85" d="M59.5 198.148c27.338 0 49.5 -22.162 49.5 -49.5 0 -27.3382 -22.162 -49.5 -49.5 -49.5S10 121.3098 10 148.648c0 27.338 22.162 49.5 49.5 49.5Z" stroke-width="1"></path><path id="vector_50" fill="#ffffff" d="M125.7778 109.384c-0.224 0.166 -0.502 -0.112 -0.4 -0.4 0.6468 -1.0246 1.0132 -2.2012 1.0622 -3.412 0 -0.4 0.0558 -1.566 -0.5602 -1.622 -0.896 0 -2.8098 2.42 -3.3558 3.132 -0.17 0.222 -0.614 0.112 -0.502 -0.224 0.2614 -1.0886 0.4664 -2.19 0.6138 -3.3 0.112 -1.024 -0.276 -2.24 -0.782 -1.734 -1.9346 2.3808 -3.5342 5.0152 -4.754 7.83 -0.11 0.226 -0.446 0.112 -0.504 -0.056 -0.4792 -1.379 -1.3058 -2.6112 -2.4 -3.578 -0.666 -0.334 -0.7458 -0.15 -0.9498 0.056 -0.88 1.318 0.4958 6.672 0.9498 8.222 8.906 3.214 10.068 5.552 10.068 4.922 1.538 -4 2.524 -6.638 2.686 -6.88 0.9622 -0.8244 1.694 -1.8842 2.1242 -3.076 0.398 -1.864 -1.5902 -0.734 -3.2962 0.12Z" stroke-width="1"></path><path id="vector_51" fill="#ffffff" d="m60.226 135.894 -2.516 5.818c1.1018 1.1634 2.4576 2.0564 3.9616 2.6094 1.504 0.553 3.1152 0.751 4.7084 0.5786l2.18 -5.37c-3.0242 -0.5432 -5.8788 -1.7886 -8.334 -3.636Z" stroke-width="1"></path><path id="vector_52" fill="#ffffff" d="M88.864 106.3064c-4.177 -1.8282 -7.512 -5.163 -9.34 -9.34 -4.138 2.8654 -9.1322 4.2276 -14.152 3.86 -1.2978 -0.1236 -2.5864 -0.3294 -3.858 -0.616 -0.032 0 -0.8 -0.224 -0.84 -0.224 -0.345 1.539 -0.7934 3.0532 -1.342 4.532 -1.1306 3.03 -2.7352 5.8612 -4.754 8.388 -0.0316 0.0292 -0.069 0.0514 -0.11 0.0646 -0.041 0.0134 -0.0844 0.0174 -0.1272 0.0122 -0.0426 -0.0054 -0.0838 -0.02 -0.1202 -0.043 -0.0364 -0.023 -0.0674 -0.0536 -0.0906 -0.0898 -0.7592 -1.1538 -1.7982 -2.0964 -3.02 -2.74 -0.9418 -0.4434 -2.002 -0.5686 -3.0212 -0.357 -1.019 0.2118 -1.9418 0.749 -2.6288 1.531 -2.268 2.646 -0.6 7.638 2.294 9.788 2.538 1.892 4.642 0.46 4.642 1.456 2.768 9.686 9.908 17.318 19.968 16.778 3 0.0408 5.946 -0.8016 8.471 -2.4226 2.5248 -1.6208 4.5172 -3.9486 5.729 -6.6934 3.19 -6.478 3.31 -16.808 2.3 -23.884Z" stroke-width="1"></path><path id="vector_53" fill="#256d85" d="M84.724 127.84c1.8534 0 3.356 -1.5026 3.356 -3.356 0 -1.8536 -1.5026 -3.356 -3.356 -3.356 -1.8536 0 -3.356 1.5024 -3.356 3.356 0 1.8534 1.5024 3.356 3.356 3.356Z" stroke-width="1"></path><path id="vector_54" fill="#466bf8" d="M54.522 112.1244c0.112 -0.168 0.224 -0.28 0.336 -0.448 2.659 -3.5604 4.4926 -7.6676 5.368 -12.024 -1.956 -1.064 -9.34 -5.314 -10.068 -7.832 -2.3532 2.1956 -3.9222 5.1016 -4.4676 8.2734 -0.5454 3.1718 -0.037 6.435 1.4476 9.2906 1.359 -0.4488 2.8302 -0.422 4.1722 0.076 1.3418 0.4978 2.4744 1.4372 3.2118 2.664Z" stroke-width="1"></path><path id="vector_55" fill="#466bf8" d="M68.8922 100.6002c3.8664 -0.5258 7.53 -2.0468 10.632 -4.414 0.23 -0.162 0.446 0.134 0.446 0.334 1.7736 4.1176 5.0562 7.4002 9.174 9.174 0.234 0 0.224 0.178 0.224 0.4 0.993 5.8546 0.936 11.8392 -0.168 17.674 1.4056 -0.7474 2.6022 -1.834 3.4814 -3.1612 0.879 -1.3272 1.4128 -2.853 1.5526 -4.4388 0.57 -6.6 -4.52 -3.48 -3.078 -8.556 1.264 -4.448 4.152 -7.296 1.064 -11.076 -3.174 -3.884 -4.06 -12.33 -10.348 -11.912 -6.694 0.442 -3.258 -0.04 -9.508 -2.294 -2.4756 -0.8976 -5.085 -1.371 -7.718 -1.4 -3.356 0 -6.164 0.946 -7.048 3.02 -1.558 3.65 -5.928 4.898 -6.88 6.936 -1.13 1.114 7.376 10.534 18.174 9.714Z" stroke-width="1"></path><path id="vector_56" fill="#466bf8" d="M111.46 114.0264c-0.3406 -0.0002 -0.6712 0.1162 -0.9368 0.3296 -0.2656 0.2136 -0.4502 0.5116 -0.5232 0.8444 -2.686 10.748 -6.8 20.942 -14.99 28.526 -4.798 4.5022 -10.9148 7.3452 -17.45 8.11 1.2352 1.504 2.3588 3.0962 3.362 4.764 2.727 4.8358 4.6354 10.0894 5.648 15.548 9.9596 -1.7364 18.9898 -6.9244 25.506 -14.654 7.718 -9.3974 12.8842 -20.625 15 -32.6 0.134 -0.4736 0.2086 -0.962 0.222 -1.454 -0.254 -3.206 -12.732 -9.026 -15.838 -9.414Z" stroke-width="1"></path><path id="vector_57" fill="#466bf8" d="m67.3298 144.0602 -0.56 1.344c-1.7878 0.2876 -3.6196 0.115 -5.3224 -0.5016 -1.7026 -0.6166 -3.2202 -1.6568 -4.4096 -3.0224l0.504 -1.12c-18.366 -2.55 -33.13 16.138 -40.21392 33.28 3.44432 5.7596 8.03232 10.7524 13.48112 14.67 5.4486 3.9176 11.6426 6.677 18.1992 8.108 6.5566 1.4308 13.3368 1.5028 19.9224 0.2116 6.5856 -1.2914 12.8366 -3.9186 18.3672 -7.7196 0 -17.926 -3.262 -36.044 -19.968 -45.25Z" stroke-width="1"></path><path id="vector_58" fill="#06283d" d="M129.8 107.6682c-0.672 -0.818 -1.948 -0.366 -2.616 -0.092 0.418 -1.4 0.702 -3.546 -0.508 -4.368 -1 -0.684 -2.132 0.22 -3.07 1.188 0.184 -1.656 0.134 -3.572 -1.53 -3.624 -0.8 0.02 -2.11 0.852 -5.24 7.032 -0.814 -1.518 -2.26 -3.434 -3.844 -2.738 -1.628 0.72 -1.064 3.888 -0.8 5.412 0.254 1.422 0.456 2.326 0.6 2.91 -0.4176 -0.207 -0.875 -0.3216 -1.3408 -0.336 -0.466 -0.0146 -0.9296 0.0714 -1.3592 0.252 -0.3452 0.1994 -0.6418 0.473 -0.8688 0.8008 -0.2268 0.3278 -0.3782 0.7018 -0.4432 1.0952 -3.956 17.044 -14.454 34.08 -31.6 35.526 -2.6254 -2.9936 -5.7478 -5.5112 -9.23 -7.442l1.258 -3.144c3.2822 0.5194 6.6446 0.077 9.6806 -1.274 3.036 -1.3508 5.6158 -3.5522 7.4274 -6.338 1.4336 -2.3622 2.4586 -4.949 3.032 -7.652 1.6138 -0.8168 2.9914 -2.0336 4.0012 -3.5342 1.0098 -1.5008 1.618 -3.2352 1.7668 -5.0378 0.338 -3.976 -1.182 -5 -2.292 -5.754 -1.438 -0.97 -1.47 -1.33 0.312 -5.758 1.2 -3 2.248 -5.6 -0.366 -8.812 -3 -3.692 -4.064 -12.724 -11.216 -12.266 -3.924 0.252 -4 0.2 -5 -0.4 -6.35 -3.83 -17.8 -5.15 -20.15 0.306 -0.9242 1.7024 -2.2972 3.119 -3.97 4.096 -5.686 4.044 -10.8 12.098 -6.728 21.612 -4.096 2.48 -2.816 8.75 0.698 11.942 0.5826 0.5676 1.275 1.0106 2.0346 1.3018 0.7596 0.2912 1.5706 0.4248 2.3834 0.3922h0.458c1.3444 4.7846 3.9728 9.1102 7.6 12.508l-1.716 4.054c-6.478 -1.012 -13.702 1.038 -20.4 5.8 -5.702 4.2878 -10.5468 9.6096 -14.282 15.688 -2.4414 3.9184 -4.56496 8.0262 -6.35002 12.284 -0.298 0.6 -0.188 1 0.522 1.936C29.354 197.4982 62.942 207.02 87.286 190.2182c0.506 -0.348 0.776 -0.344 0.776 -1.138 0.2488 -5.4078 -0.0992 -10.8266 -1.038 -16.158 15.176 -2.962 26.872 -12.768 34.77 -29.154 3.0918 -6.494 5.242 -13.3954 6.386 -20.496 -0.104 -1.342 -1.76 -2.89 -2.92 -3.818 0.716 -1.862 2.6 -6.534 2.6 -6.534 0.8032 -0.7202 1.4616 -1.587 1.94 -2.554 0.674 -1.414 0.372 -2.248 0 -2.698Zm-36 8.664c-0.0996 1.3216 -0.4962 2.6038 -1.16 3.751 -0.6638 1.1472 -1.5778 2.13 -2.674 2.875 0.692 -4.1562 0.8478 -8.3842 0.464 -12.58 1.082 1.77 3.758 1.41 3.37 5.954Zm-35.688 -31.976c0.748 -1.728 3.15 -2.718 6.59 -2.718 3.9946 0.0696 7.9078 1.1418 11.38 3.118 1.372 0.8 1.758 0.844 5.88 0.572 5.948 -0.4 6.63 7.698 9.926 11.73 2.894 3.542 0.212 5.762 -1.6 11.89 -0.18 -1.716 -0.278 -2.234 -0.328 -2.502 -0.05 -0.268 0.036 -0.93 -0.644 -1.024 -3.9246 -1.777 -7.0676 -4.9224 -8.842 -8.848 -0.0086 -0.1324 -0.0518 -0.2604 -0.1256 -0.3708 -0.0736 -0.1104 -0.175 -0.1994 -0.294 -0.2582 -0.119 -0.0588 -0.2514 -0.0852 -0.3838 -0.0766 -0.1324 0.0086 -0.2602 0.052 -0.3706 0.1256 -2.9846 2.1584 -6.4914 3.4806 -10.158 3.83 -2.9352 0.3142 -5.9034 -0.0584 -8.67 -1.088 -4.902 -2.8 -8.946 -5.856 -9.22 -7.018 -0.542 -1.618 5.074 -3.228 6.86 -7.362ZM50 92.6742c1.618 2.658 7.718 6.166 9.658 7.238 -0.878 4.1196 -2.6332 8.0016 -5.146 11.382 -0.7912 -1.0898 -1.8932 -1.915 -3.1618 -2.3672 -1.2684 -0.4524 -2.644 -0.5104 -3.9462 -0.1668 -1.2798 -2.6216 -1.7172 -5.5748 -1.2524 -8.4546 0.4648 -2.88 1.809 -5.5456 3.8484 -7.6314Zm7.428 38.832c-2.0454 -2.8198 -3.5856 -5.9734 -4.552 -9.32 -0.37 -1.294 -2.356 0.23 -4.774 -1.57 -2.834 -2.114 -4.4 -6.968 -1.882 -9.372 2.354 -2.256 6 -0.874 7.544 1.828 0.067 0.0992 0.1556 0.1822 0.259 0.2426 0.1034 0.0606 0.219 0.097 0.3384 0.1068 0.1196 0.0098 0.2396 -0.0074 0.3514 -0.0502 0.112 -0.0428 0.2128 -0.1102 0.2952 -0.1972 2.9332 -3.7128 5.0138 -8.0254 6.094 -12.632 3.0764 0.8218 6.2908 0.9904 9.4364 0.495 3.1456 -0.4952 6.1526 -1.6436 8.8276 -3.371 1.8998 3.9474 5.1154 7.11 9.094 8.944 1.704 12.302 -0.246 22.37 -5.366 27.652 -6.174 6.378 -18.796 6.106 -25.66 -2.756h-0.006Zm3 5.234c2.1972 1.6562 4.7384 2.7976 7.436 3.34l-1.836 4.52c-1.4184 0.1096 -2.8436 -0.0884 -4.1784 -0.5802s-2.5476 -1.2662 -3.5556 -2.2698c0.334 -0.858 0.126 -0.36 2.136 -5.01h-0.002Zm-10.6 59.646c-6.3512 -1.2598 -12.3848 -3.7826 -17.7422 -7.419 -5.3576 -3.6362 -9.93 -8.3118 -13.44582 -13.749 -0.28 -0.422 -0.522 -0.8 -0.756 -1.2 3.01202 -7.122 13.74002 -29.2 31.96202 -32.618 0.7124 3.083 1.9666 6.0152 3.704 8.66 1.1368 1.7994 2.6758 3.3104 4.496 4.414 0.58 0.29 0.896 -0.052 1.188 -0.564l0.258 1.23 -9.664 41.246Zm8.2 -43.628c-3.478 -2.438 -5.574 -7.456 -6.698 -11.552 1.8134 -0.2406 3.6498 -0.2514 5.466 -0.032 -0.218 0.484 -0.418 0.764 -0.124 1.058 1.4042 1.5362 3.1858 2.6788 5.168 3.314 -1.82 3.54 -3.146 6.054 -3.8 7.212h-0.012Zm5.838 -6.782c0.866 0.1272 1.746 0.1272 2.612 0 0.616 -0.088 0.62 -0.056 1.09 -1.2 1.6932 0.9652 3.2994 2.076 4.8 3.32 -1.8728 2.1042 -3.9768 3.9908 -6.272 5.624 -0.472 -1.706 -1.718 -6.048 -2.218 -7.744h-0.012Zm22.988 43.068c-5.97 3.9976 -12.7424 6.6408 -19.842 7.744l-2.584 -40.97 0.502 -0.838 0.08 0.314c0.2 0.574 0.92 0.684 1.14 0.428 2.7302 -1.8904 5.2422 -4.0778 7.49 -6.522 9.472 8.556 12.296 21.448 13 30.816 0.238 3.316 0.222 5.922 0.214 9.028Zm0.134 -17.482c-1.2884 -7.019 -4.1914 -13.6422 -8.48 -19.346 16.668 -2.4 25.162 -16.486 29.388 -28.2 5.9148 2.4604 11.4142 5.8192 16.304 9.958 -6.6 20.974 -20.126 34.636 -37.212 37.588Zm39.8 -48.14c-0.4644 3.0458 -1.1504 6.0538 -2.052 9 -4.9282 -4.0462 -10.4398 -7.3238 -16.348 -9.722 0.8276 -2.3822 1.5292 -4.8062 2.102 -7.262 0.0378 -0.2146 0.1468 -0.4102 0.3092 -0.5554 0.1626 -0.1452 0.3692 -0.2314 0.5868 -0.2446 2.484 -0.01 15.402 6.48 15.402 8.784Zm-0.022 -11.372c-0.296 0.296 -0.114 0.058 -2.614 6.58 -2.88 -2.0012 -6.0384 -3.5686 -9.374 -4.652 -0.768 -2.69 -1.54 -6.67 -0.946 -7.578 0.518 -0.06 1.952 1.962 2.47 3.43 0.0532 0.1402 0.1452 0.2622 0.2654 0.3518 0.12 0.0898 0.2634 0.1434 0.4128 0.1544 0.1496 0.0112 0.2992 -0.0206 0.4312 -0.0914 0.132 -0.071 0.2412 -0.178 0.3146 -0.3088 1.1162 -2.7296 2.63 -5.2792 4.492 -7.566 0.1128 0.403 0.1454 0.8244 0.096 1.24 -0.0134 0.894 -0.168 1.7802 -0.458 2.626 -0.558 1.72 0.824 1.78 1.248 1.2 0.7772 -1.143 1.7414 -2.147 2.852 -2.97 0.1508 0.3632 0.2066 0.759 0.162 1.15 -0.0974 1.1264 -0.4386 2.2184 -1 3.2 -0.0704 0.152 -0.0912 0.3224 -0.0596 0.487 0.0318 0.1644 0.1142 0.315 0.236 0.43 0.1218 0.1152 0.2766 0.1892 0.4426 0.2116 0.1662 0.0224 0.335 -0.008 0.483 -0.0866 0.7876 -0.5188 1.672 -0.8726 2.6 -1.04 -0.14 1.514 -1.33 2.33 -2.054 3.232Z" stroke-width="1"></path><path id="vector_59" fill="#06283d" d="M52.714 115.75c-0.568 -2.27 -1.816 -3.34 -3.698 -3.176 -1.614 0.022 -0.944 1.944 -0.084 1.616 1.366 -0.016 1.66 0 2.244 1.932 0.0102 0.1146 0.045 0.2256 0.102 0.3256 0.057 0.1 0.135 0.1864 0.2286 0.2536 0.0934 0.067 0.2002 0.1132 0.3132 0.1352 0.113 0.022 0.2294 0.0194 0.3412 -0.0076 0.1118 -0.0272 0.2166 -0.078 0.307 -0.1492 0.0904 -0.0712 0.1644 -0.161 0.2168 -0.2634 0.0526 -0.1024 0.0822 -0.215 0.0874 -0.33 0.005 -0.115 -0.0148 -0.2296 -0.0582 -0.3362Z" stroke-width="1"></path><path id="vector_60" fill="#06283d" d="M72.524 106c-1.3836 -0.5932 -2.9232 -0.7176 -4.3838 -0.3538 -1.4608 0.3636 -2.7624 1.1952 -3.7062 2.3678 -0.0624 0.0858 -0.1064 0.1834 -0.1298 0.2868 -0.0232 0.1034 -0.0252 0.2104 -0.0058 0.3144 0.0194 0.1042 0.0598 0.2034 0.1188 0.2914 0.059 0.088 0.1354 0.163 0.2244 0.2206 0.089 0.0576 0.1886 0.0964 0.2932 0.114 0.1044 0.0178 0.2114 0.014 0.3144 -0.011 0.103 -0.025 0.1998 -0.0706 0.2844 -0.1344 0.0848 -0.0636 0.1556 -0.1438 0.2084 -0.2358 0.78 -0.8492 1.8042 -1.4354 2.9316 -1.678 1.1272 -0.2424 2.302 -0.1292 3.3624 0.324 0.1892 0.0322 0.3838 -0.005 0.5482 -0.1044 0.1642 -0.0996 0.2872 -0.255 0.3464 -0.4376 0.0592 -0.1828 0.0506 -0.3808 -0.024 -0.5576 -0.0746 -0.177 -0.2104 -0.3212 -0.3826 -0.4064Z" stroke-width="1"></path><path id="vector_61" fill="#06283d" d="M87.18 108.4222c-0.3676 -0.7842 -0.984 -1.425 -1.7532 -1.8228 -0.7694 -0.3978 -1.6484 -0.5304 -2.5008 -0.3772 -0.106 0.0138 -0.2082 0.0494 -0.2998 0.1042 -0.0918 0.055 -0.1712 0.1282 -0.2334 0.215 -0.0624 0.087 -0.106 0.1858 -0.1286 0.2902 -0.0224 0.1046 -0.0232 0.2126 -0.0022 0.3174 0.021 0.1048 0.0634 0.2042 0.1244 0.292 0.061 0.0878 0.1396 0.162 0.2304 0.2182 0.091 0.0562 0.1926 0.093 0.2984 0.1084 0.1058 0.0154 0.2136 0.0088 0.3168 -0.0194 0.5212 -0.0646 1.0494 0.038 1.5088 0.2928 0.4592 0.2548 0.826 0.6488 1.0472 1.1252 0.0986 0.1846 0.2666 0.3224 0.4668 0.3832 0.2002 0.0608 0.4166 0.0394 0.6012 -0.0592 0.1846 -0.0986 0.3224 -0.2666 0.3832 -0.467 0.0606 -0.2002 0.0394 -0.4164 -0.0592 -0.601Z" stroke-width="1"></path><path id="vector_62" fill="#06283d" d="M72.1578 112.8704c0.638 -0.64 -0.4 -1.732 -1.13 -1.098 -0.444 0.4 -0.238 0.4 -0.6 0.412 -0.531 0.0744 -1.0164 0.3404 -1.3652 0.7476 -0.3488 0.4074 -0.5368 0.9282 -0.5288 1.4644 -0.186 2.446 2.416 3.054 3.4 1.132 0.193 -0.37 0.2954 -0.7804 0.2988 -1.1976 0.0036 -0.4172 -0.092 -0.8294 -0.2788 -1.2024 0.074 -0.072 0.178 -0.234 0.204 -0.258Z" stroke-width="1"></path><path id="vector_63" fill="#06283d" d="M84.734 113.8c-0.1394 0.1586 -0.331 0.262 -0.54 0.292 -0.3202 0.0282 -0.6302 0.1278 -0.9068 0.2914 -0.2768 0.1636 -0.5134 0.387 -0.6926 0.654 -0.1792 0.267 -0.2962 0.5708 -0.3428 0.8888 -0.0464 0.3182 -0.021 0.6426 0.0742 0.9498 0.021 0.4 0.1796 0.7804 0.4492 1.077 0.2694 0.2964 0.633 0.4904 1.0294 0.5492 0.3962 0.059 0.8006 -0.021 1.1446 -0.2264 0.344 -0.2052 0.6064 -0.5232 0.7428 -0.8998 0.1918 -0.3704 0.2936 -0.7806 0.297 -1.1976 0.0036 -0.417 -0.0914 -0.829 -0.277 -1.2024 1.168 -1.096 -0.392 -1.988 -0.978 -1.176Z" stroke-width="1"></path><path id="vector_64" fill="#06283d" d="M79.738 123.5764c-0.032 -0.2 -1.678 -8.482 -1.726 -8.99 0.056 -0.11 1.044 -6.2 1.332 -7.858 0.172 -0.966 -1.37 -1.342 -1.544 -0.338 -1.874 10.848 -1.742 5.846 0.4 17.514 0.0718 0.1722 0.2016 0.3138 0.3668 0.4004 0.1654 0.0866 0.3558 0.1126 0.5382 0.0738 0.1826 -0.039 0.3456 -0.1404 0.4612 -0.287 0.1156 -0.1464 0.1764 -0.3288 0.1718 -0.5152Z" stroke-width="1"></path><path id="vector_65" fill="#06283d" d="M78.672 128.6822c-1.6318 0.0684 -3.2594 -0.2142 -4.7726 -0.8288 -1.5132 -0.6144 -2.8772 -1.5464 -3.9994 -2.7332 -0.0842 -0.0916 -0.1888 -0.1624 -0.3054 -0.2066 -0.1166 -0.044 -0.2418 -0.0604 -0.3656 -0.0476 -0.124 0.0128 -0.2432 0.0544 -0.3482 0.1216 -0.105 0.067 -0.193 0.1576 -0.2568 0.2646 -0.7428 1.3472 -1.129 2.8618 -1.122 4.4 0.08 3.21 3.4 5.238 6.54 5.522 0.207 0.0014 0.4058 -0.0796 0.553 -0.2248 0.1472 -0.1454 0.2308 -0.3432 0.232 -0.5502 0.0014 -0.2068 -0.0796 -0.4058 -0.2248 -0.553 -0.1454 -0.1472 -0.3432 -0.2306 -0.5502 -0.232 -1.882 -0.036 -4.81 -1.586 -4.936 -3.834 -0.0108 -0.9412 0.145 -1.877 0.46 -2.764 2.4886 2.2406 5.7636 3.4042 9.108 3.236 0.2082 -0.0016 0.4072 -0.0858 0.5534 -0.2342 0.146 -0.1482 0.2272 -0.3486 0.2256 -0.5568 -0.0016 -0.2082 -0.0858 -0.4072 -0.2342 -0.5532 -0.1482 -0.1462 -0.3486 -0.2274 -0.5568 -0.2258Z" stroke-width="1"></path><path id="vector_66" fill="#06283d" d="M49.442 97.3404c-0.273 0.0118 -0.5308 0.1286 -0.7196 0.3258 -0.189 0.1974 -0.2944 0.46 -0.2944 0.7332 0 0.273 0.1054 0.5358 0.2944 0.733 0.1888 0.1974 0.4466 0.314 0.7196 0.326 0.2728 -0.012 0.5306 -0.1286 0.7196 -0.326 0.1888 -0.1972 0.2944 -0.46 0.2944 -0.733 0 -0.2732 -0.1056 -0.5358 -0.2944 -0.7332 -0.189 -0.1972 -0.4468 -0.314 -0.7196 -0.3258Z" stroke-width="1"></path><path id="vector_67" fill="#06283d" d="M54.45 99.754c-0.284 0.007 -0.5552 0.119 -0.7614 0.3144 -0.206 0.1954 -0.3324 0.4604 -0.3546 0.7436 0.0108 0.2924 0.132 0.57 0.339 0.777 0.207 0.207 0.4844 0.328 0.777 0.339 0.2802 -0.0122 0.545 -0.1318 0.739 -0.3344 0.194 -0.2026 0.3024 -0.4722 0.3024 -0.7526 0 -0.2806 -0.1084 -0.5502 -0.3024 -0.7528 -0.194 -0.2024 -0.4588 -0.3222 -0.739 -0.3342Z" stroke-width="1"></path><path id="vector_68" fill="#06283d" d="M49.412 102.314c-0.281 0 -0.5506 0.1116 -0.7494 0.3104 -0.1988 0.1988 -0.3106 0.4684 -0.3106 0.7496 0 0.2812 0.1118 0.5508 0.3106 0.7496 0.1988 0.1988 0.4684 0.3104 0.7494 0.3104 0.1448 0.0088 0.2896 -0.012 0.426 -0.0612 0.1364 -0.0492 0.2612 -0.1258 0.3668 -0.2252 0.1056 -0.0992 0.1896 -0.2192 0.2472 -0.3522 0.0576 -0.133 0.0872 -0.2764 0.0872 -0.4214 0 -0.145 -0.0296 -0.2884 -0.0872 -0.4214s-0.1416 -0.253 -0.2472 -0.3522c-0.1056 -0.0994 -0.2304 -0.176 -0.3668 -0.2252 -0.1364 -0.0492 -0.2812 -0.07 -0.426 -0.0612Z" stroke-width="1"></path><path id="vector_69" fill="#06283d" d="M53.414 104.9244c-0.2812 0 -0.5508 0.1116 -0.7496 0.3104 -0.1988 0.1988 -0.3104 0.4684 -0.3104 0.7496 0 0.281 0.1116 0.5506 0.3104 0.7494 0.1988 0.1988 0.4684 0.3106 0.7496 0.3106 0.2812 0 0.5508 -0.1118 0.7496 -0.3106 0.1988 -0.1988 0.3104 -0.4684 0.3104 -0.7494 0 -0.2812 -0.1116 -0.5508 -0.3104 -0.7496 -0.1988 -0.1988 -0.4684 -0.3104 -0.7496 -0.3104Z" stroke-width="1"></path><path id="vector_70" fill="#06283d" d="M112.958 121.0002c-0.3326 -0.013 -0.6472 -0.1544 -0.8778 -0.3944 -0.2306 -0.2398 -0.3594 -0.5598 -0.3594 -0.8926s0.1288 -0.6526 0.3594 -0.8926c0.2306 -0.2398 0.5452 -0.3812 0.8778 -0.3944 0.3326 0.0132 0.647 0.1546 0.8778 0.3944 0.2306 0.24 0.3594 0.5598 0.3594 0.8926s-0.1288 0.6528 -0.3594 0.8926c-0.2308 0.24 -0.5452 0.3814 -0.8778 0.3944Z" stroke-width="1"></path><path id="vector_71" fill="#06283d" d="M119.702 110.4002c-0.0784 -0.0894 -0.1756 -0.1604 -0.2848 -0.2076 -0.109 -0.0472 -0.2274 -0.0694 -0.3462 -0.0652 -0.1188 0.0044 -0.2352 0.035 -0.3406 0.09 -0.1054 0.0548 -0.1974 0.1326 -0.269 0.2274 -0.0716 0.095 -0.1212 0.2046 -0.1452 0.321 -0.024 0.1164 -0.0216 0.2368 0.0068 0.3522 0.0284 0.1156 0.0822 0.2232 0.1574 0.3152 0.0752 0.092 0.17 0.1662 0.2776 0.217 0.3372 0.2756 0.6118 0.62 0.8056 1.01 0.1938 0.39 0.3022 0.8168 0.3184 1.252 -0.0014 0.1062 0.0188 0.2114 0.0596 0.3096 0.0406 0.098 0.101 0.1866 0.1772 0.2606 0.0762 0.0738 0.1668 0.1314 0.266 0.1692 0.0992 0.0376 0.205 0.0548 0.3112 0.0502 0.106 -0.0048 0.21 -0.031 0.3056 -0.0772 0.0956 -0.0462 0.1806 -0.1114 0.25 -0.1918 0.0696 -0.0802 0.122 -0.1738 0.154 -0.275 0.032 -0.1012 0.043 -0.208 0.0324 -0.3136 -0.0478 -0.6602 -0.2258 -1.3044 -0.5238 -1.8954 -0.298 -0.5912 -0.71 -1.1174 -1.2122 -1.5486Z" stroke-width="1"></path><path id="vector_72" fill="#256d85" d="M67.7232 121.9532c0.7092 -1.7124 -0.1272 -3.685 -1.868 -4.4062 -1.741 -0.7212 -3.7274 0.0824 -4.4366 1.7948 -0.7094 1.7124 0.127 3.6852 1.868 4.4062 1.741 0.7212 3.7272 -0.0824 4.4366 -1.7948Z" stroke-width="1"></path></g></g></svg>