<svg xmlns="http://www.w3.org/2000/svg" fill="none" viewBox="0 0 400 400" id="Sending-Receiving-Texts-Messages--Streamline-Brooklyn.svg" height="400" width="400"><desc>Sending Receiving Texts Messages Streamline Illustration: https://streamlinehq.com</desc><g id="sending-receiving-texts-messages--communication-sending-receiving-texts-messages"><g id="phone 2"><path id="vector" fill="#38a1ff" d="M196.518 315.022c-1.866 -14.334 -41.016 -111.388 -44.09 -119.3942 -3.968 -0.006 -8.24 -0.03 -12.364 -0.07 13.662 37.5162 49.192 112.8062 44.338 124.3682 -1.376 3.278 -3.492 5.812 -6.592 7.696 -21.926 13.324 -32.988 18.856 -67.744 28.53 -11.722 3.262 -10.056 -2.948 -48.392 -100.454 -4.49 -11.42 -9.222 -23.778 -12.716 -34.706 -11.034 -34.5042 -17.668 -35.6682 36.396 -46.9362 -2.424 -2.84 -4.124 -7.278 -3.364 -8.852 0.794 -1.646 2.796 -2.144 4.542 -1.006 1.476 -0.634 3.394 -0.21 3.434 1.932 0.012 0.646 -0.126 1.17 -0.366 1.582 0.762 1.126 2.306 3.772 2.646 4.918 6.31 -1.296 14.546 -3 21.418 -4.01 2.364 -4.384 5.02 -8.948 7.522 -13.344 -23.11 0.47 -71.934 9.942 -88.21 19.492 -6.478 3.8 -7.5 8.416 6.502 51.6622 8.298 25.628 40.858 117.224 53.4 137.578 2.338 3.794 4.806 5.648 11.152 5.176 12.7 -0.944 29.47 -6.97 40.7 -11.194 21.258 -7.996 54.714 -20.446 51.782 -42.968h0.006ZM68.724 168.4718c10.21 -2.332 11.368 -2.53 11.824 -0.71 0.598 2.392 -0.168 1.98 -17.38 6.064 -0.942 -0.038 -1.684 -0.368 -1.928 -1.312 -0.452 -1.754 0.984 -2.556 7.484 -4.042Z" stroke-width="1"></path><path id="vector_2" fill="#38a1ff" d="M25.09 187.0758c12.902 58.2902 50.992 148.7742 56.136 160.2342 10.672 23.78 11.276 28.276 33.062 23.622 16.666 -3.56 49.194 -15.874 63.344 -24.04 9.48 -5.47 14.476 -9.214 19.5 -21.098 0.218 -0.516 0.228 -1.394 0.826 -1.388 0.88 0.008 5.532 16.024 -5.47 25.002 -20.316 16.578 -71.358 35.272 -91.446 37.634 -8.638 1.016 -11.956 -1.496 -15.416 -6.712 -10.776 -16.24 -54.248 -132.162 -62.074 -165.568 -2.16 -9.216 -4.49798 -15.3502 1.54 -27.6882l-0.002 0.002Z" stroke-width="1"></path><path id="vector_3" fill="#06283d" d="M107.48 350.568c-2.096 0 -1.542 0.566 -7.826 -16.566 -0.872 -2.376 -0.77 -1.828 65.174 -27.706 2.306 -0.904 2.676 -0.58 3.686 1.674 1.984 4.432 3.866 8.904 5.434 13.5 1.14 3.342 1.318 2.458 -20.462 11.06 -45.874 18.118 -42.424 16.726 -46.006 18.038Zm57.806 -40.836c-1.538 0.76 -41.524 16.548 -61.638 24.326 -1.634 0.632 -0.856 0.368 3.718 11.844 0.728 1.826 0.4 1.2 20.47 -6.77 46.874 -18.612 43.216 -16.742 42.718 -17.726 -2.906 -5.736 -4.108 -11.56 -5.268 -11.674Z" stroke-width="1"></path><path id="vector_4" fill="#06283d" d="M99.406 281.544c-18.392 5.514 -18.356 5.486 -18.398 5.502 -1.7 0.658 -2.366 -0.542 -6.278 -14.532 -0.542 -1.942 0.824 -1.754 31.354 -10.832 2.848 -0.846 2.44 -0.048 5.752 12.52 1.214 4.61 0.682 3.41 -12.43 7.342Zm9.624 -5.942c-3.156 -11.232 -2.526 -11.368 -3.974 -10.928 -3.804 1.152 -5.864 1.94 -26.538 7.876 -1.332 0.382 -0.886 0.22 2.708 11.016 0.32 0.962 0.6 0.952 3.586 0.034 24.38 -7.498 24.494 -7.014 24.218 -7.998Z" stroke-width="1"></path><path id="vector_5" fill="#06283d" d="M59.758 223.204c-2.028 0.608 -2.438 0.228 -6.46 -14 -0.716 -2.534 -0.51 -1.764 25.912 -9.7262 2.864 -0.864 2.42 0.8382 6.04 14.2202 0.7 2.588 0.624 1.682 -25.492 9.506Zm19.866 -20.62c-0.204 -0.74 -0.698 -0.302 -1.048 -0.198 -22.94 6.86 -23.132 6.288 -22.612 7.812 3.636 10.686 3.204 10.924 4.57 10.402 1.262 -0.484 8.61 -2.604 20.96 -6.364 1.84 -0.56 1.296 -0.212 -1.87 -11.652Z" stroke-width="1"></path><path id="vector_6" fill="#06283d" d="M144.832 227.892c0.142 1.922 -0.27 1.572 -15.284 6.036 -11.548 3.432 -11.906 3.986 -12.7 1.718 -4.808 -13.736 -5.04 -14.338 -2.684 -15.044 7.58 -2.274 15.14 -4.612 22.734 -6.84 3.834 -1.124 3.866 -1.042 4.928 2.842 0.012 0.042 2.702 9.876 3.006 11.288Zm-28.784 -5.168c-1.338 0.4 -0.85 0.234 2.712 11.038 0.462 1.402 0.24 0.854 22.48 -5.86 1.446 -0.436 1.028 -0.186 -1.994 -11.184 -0.38 -1.384 -0.224 -0.866 -23.2 6.008l0.002 -0.002Z" stroke-width="1"></path></g><g id="plane 2"><path id="vector_7" fill="#06283d" d="M173.982 66.1404c19.094 -18.484 19.368 -19.168 22.602 -17.766 11.244 4.874 38.792 17.696 46.574 21.328 0.744 0.348 1.862 0.522 1.576 1.728 -0.288 1.212 -1.324 1.264 -2.364 1.242 -4.424 -0.09 -71.356 -3.658 -68.388 -6.532Zm63.802 3.646c-27.81 -12.774 -32.42 -14.698 -42.106 -19.498 -1.454 -0.72 -0.674 -0.464 -17.558 15.076 20.506 1.058 39.48 3.464 59.664 4.422Z" stroke-width="1"></path><path id="vector_8" fill="#06283d" d="M214.6 26.8042c1.46 -0.002 30.97 38.472 31.878 39.74 1.084 1.512 -0.268 2.578 -1.562 1.924 -49.312 -24.92 -47.446 -23.756 -45.664 -26.074 0.856 -1.114 14.158 -15.426 15.348 -15.59Zm25.628 36.49c1.194 0.4 1.76 1.59 -24.702 -32.566 -1.372 -1.77 0.182 -2.574 -14.5 12.78 4.364 2.232 0.132 -0.23 39.202 19.786Z" stroke-width="1"></path><path id="vector_9" fill="#06283d" d="M186.842 81.1242c30.678 -5.3228 46.092 -7.5454 46.246 -6.668 0.444 2.27 0.316 1.538 -45.334 9.51 -4.716 0.824 -4.41 0.728 -3.01 -10.374 0.102 -0.812 0.292 -1.754 1.398 -1.682 1.562 0.104 1.2 0.824 0.7 9.214Z" stroke-width="1"></path></g><g id="plane 1"><path id="vector_10" fill="#06283d" d="M113.488 189.9178c-1.118 0.168 -2.316 -1.198 -0.706 -2.308 39.366 -27.186 38.076 -26.912 40.512 -25.368 0.982 0.622 19.24 12.064 19.066 13.158 -0.244 1.526 -57.946 14.38 -58.872 14.518Zm55.212 -15.268c-5.522 -3.59 -11.198 -6.95 -16.518 -10.848 -1.09 -0.8 -0.274 -0.41 -34.364 22.834 0.478 -0.106 51.504 -11.582 50.882 -11.986Z" stroke-width="1"></path><path id="vector_11" fill="#06283d" d="M110.842 186.9518c-1.856 -0.294 -1.824 -0.738 3.266 -10.104 14.552 -26.77 14.256 -25.71 15.972 -29.054 1.116 -2.172 0.846 -1.87 15.79 9.24 2.882 2.142 2.442 2.04 -13.448 14.042 -2.3 1.738 -18.348 13.834 -21.58 15.876Zm34.43 -28.05c-13.986 -10.282 -13.302 -10.552 -14.292 -8.666 -4.136 7.882 -10.558 19.782 -16.886 31.524 10.42 -7.592 20.6 -15.428 31.178 -22.858Z" stroke-width="1"></path><path id="vector_12" fill="#06283d" d="M125.218 191.3038c-2.546 -0.11 -2.796 -0.438 -2.78 -1.304 0.024 -1.302 0.224 -1.204 39.162 -1.066 1.776 0.006 1.068 -0.28 -0.284 -6.278 -0.142 -0.632 -0.284 -1.364 0.542 -1.67 0.914 -0.338 1.328 0.294 1.536 1.014 2.482 8.526 3.202 9.354 0.29 9.386 -0.042 0 -35.728 0.036 -38.466 -0.082Z" stroke-width="1"></path></g><g id="line 1"><path id="vector_13" fill="#06283d" d="M235.174 122.2482c0.926 1.984 -0.558 3.086 -2.16 1.33 -5.906 -6.47 -6.17 -6.6742 -5.736 -7.6142 1.25 -2.704 6.274 2.8102 7.896 6.2842Z" stroke-width="1"></path><path id="vector_14" fill="#06283d" d="M220.332 111.1962c-0.356 1.212 -1.098 0.964 -9.896 -0.334 -0.732 -0.108 -1.682 -0.146 -1.646 -1.21 0.076 -2.31 12.408 -1.404 11.542 1.544Z" stroke-width="1"></path><path id="vector_15" fill="#06283d" d="M163.252 134.796c2.09 -4.552 5.708 -8.498 6.95 -7.236 0.594 0.604 0.408 0.658 -5.266 8.322 -0.632 0.854 -1.85 0.834 -1.684 -1.086Z" stroke-width="1"></path><path id="vector_16" fill="#06283d" d="M151.64 152.9542c0.978 -2.774 3.994 -7.988 5.53 -6.736 1.062 0.866 -0.838 3.698 -2.122 5.826 -1.558 2.582 -3.13 3.994 -3.408 0.91Z" stroke-width="1"></path><path id="vector_17" fill="#06283d" d="M184.274 114.9262c-0.156 0.83 -0.122 0.884 -6.886 6.01 -0.478 0.362 -1.07 0.92 -1.714 0.226 -1.442 -1.556 7.916 -9.166 8.6 -6.236Z" stroke-width="1"></path><path id="vector_18" fill="#06283d" d="M192.79 111.674c-3.322 0.202 0.46 -4.08 8.372 -3.128 1.35 0.162 1.71 1.288 0.154 1.868 -2.266 0.844 -5.254 0.372 -8.526 1.26Z" stroke-width="1"></path></g><g id="line 2"><path id="vector_19" fill="#06283d" d="M144.402 15.45814c-4.104 -0.248 -4.732 -3.892 8.394 -3.182 1.554 0.084 2.234 1.75 0.126 2.344 -2.77 0.78 -5.654 0.424 -8.52 0.838Z" stroke-width="1"></path><path id="vector_20" fill="#06283d" d="M194.592 27.7782c1.584 1.882 -0.072 3.474 -1.868 1.792 -7.804 -7.302 -8.006 -7.312 -7.588 -8.206 1.174 -2.51598 7.614 4.226 9.456 6.414Z" stroke-width="1"></path><path id="vector_21" fill="#06283d" d="M103.852 36.9604c2.89 -6.43 7.152 -10.244 8.352 -8.798 0.578 0.696 0.376 0.73 -6.206 9.69 -0.758 1.032 -2.372 0.542 -2.146 -0.892Z" stroke-width="1"></path><path id="vector_22" fill="#06283d" d="M134.964 70.2202c-0.09 1.828 -1.378 1.814 -1.934 0.77 -1.622 -3.036 -2.78 -6.27 -3.952 -9.494 -0.17 -0.47 -0.108 -1.02 0.412 -1.298 2.264 -1.212 4.948 7.326 5.474 10.022Z" stroke-width="1"></path><path id="vector_23" fill="#06283d" d="M105.958 94.0262c0.394 -0.712 1.268 -0.476 1.95 -0.284 7.692 2.176 9.758 1.22 9.676 2.856 -0.144 2.908 -13.214 0.302 -11.626 -2.572Z" stroke-width="1"></path><path id="vector_24" fill="#06283d" d="M134.656 85.336c-1.72 5.264 -6.022 9.558 -7.318 8.406 -1.164 -1.036 2.528 -4.516 5.166 -9.3 0.518 -0.94 1.84 -1.146 2.152 0.894Z" stroke-width="1"></path><path id="vector_25" fill="#06283d" d="M132.78 15.68796c-1.19 1.09 0.028 0.506 -4.782 2.738 -5.452 2.53004 -5.826 2.91804 -6.47 1.92804 -1.562 -2.39804 10.178 -7.24004 11.252 -4.66604Z" stroke-width="1"></path><path id="vector_26" fill="#06283d" d="M102.634 188.9804c-0.026 1.478 -1.382 1.614 -2 0.996 -1.462 -1.46 -6.69 -7.278 -4.992 -8.68 1.776 -1.466 6.784 6.412 6.992 7.684Z" stroke-width="1"></path><path id="vector_27" fill="#06283d" d="M97.762 46.854c1.088 0.042 3.744 0.164 3.74 1.32 -0.004 1.302 -8.804 2.126 -10.16 2.268 -2.816 0.298 -2.698 -3.164 6.42 -3.588Z" stroke-width="1"></path><path id="vector_28" fill="#06283d" d="M64.73 132.614c0.094 -0.848 -0.07 -1.592 0.686 -1.782 0.678 -0.17 1.168 0.376 1.438 0.892 6.376 12.23 1.166 14.204 -2.122 0.888l-0.002 0.002Z" stroke-width="1"></path><path id="vector_29" fill="#06283d" d="M115.21 204.468c0.04 1.124 -1.398 1.28 -2.084 0.624 -2.332 -2.228 -3.234 -3.396 -5.61 -6.1078 -1.456 -1.662 0.234 -2.86 1.624 -1.778 0.704 0.548 6.002 5.3258 6.07 7.2618Z" stroke-width="1"></path><path id="vector_30" fill="#06283d" d="M96.49 57.304c1.656 0.28 0.88 3.078 -0.346 9.91 -0.274 1.522 -1.812 1.422 -2.046 0.01 -0.392 -2.382 0.04 -10.318 2.392 -9.92Z" stroke-width="1"></path><path id="vector_31" fill="#06283d" d="M175.52 17.9879c-3.3 -0.69 -6.454 -1.876 -9.646 -2.926 -0.492 -0.162 -0.82 -0.548 -0.712 -1.132 0.604 -3.222 16.17 4.044 10.358 4.058Z" stroke-width="1"></path><path id="vector_32" fill="#06283d" d="M115.662 48.956c8.556 2.206 14.282 10.718 -1.022 1.918 -0.906 -0.52 -0.942 -2.012 1.022 -1.918Z" stroke-width="1"></path><path id="vector_33" fill="#06283d" d="M96.128 76.4504c0.942 -0.302 1.32 0.648 1.614 1.288 3.354 7.32 3.458 7.784 2.618 8.34 -2.528 1.68 -6.356 -8.946 -4.232 -9.628Z" stroke-width="1"></path><path id="vector_34" fill="#06283d" d="M69.838 63.3922c-3.092 -0.622 5.988 -9.502 7.502 -8.104 0.628 0.58 0.112 1.254 -0.298 1.726 -1.008 1.166 -5.664 6.442 -7.204 6.378Z" stroke-width="1"></path><path id="vector_35" fill="#06283d" d="M59.028 91.54c1.442 0.286 0.81 1.966 -0.334 9.956 -0.206 1.434 -1.684 1.598 -1.892 -0.034 -0.308 -2.434 -0.038 -10.374 2.226 -9.922Z" stroke-width="1"></path><path id="vector_36" fill="#06283d" d="M62.16 118.1262c-0.032 1.11 0.152 2.1 -0.776 2.306 -2.188 0.484 -3.026 -7.75 -2.37 -9.546 0.542 -1.488 1.556 -1.408 1.948 0.014 0.684 2.484 0.758 5.062 1.2 7.228l-0.002 -0.002Z" stroke-width="1"></path><path id="vector_37" fill="#06283d" d="M90.058 172.7724c0.742 1.55 -0.652 2.2318 -1.694 1.2638 -7.766 -7.22 -4.358 -13.8978 1.694 -1.2638Z" stroke-width="1"></path><path id="vector_38" fill="#06283d" d="M63.942 71.852c1.354 0 -0.544 4.446 -2.378 9.252 -0.352 0.92 -1.648 1.126 -1.924 -0.212 -0.38 -1.844 1.5 -7.35 4.302 -9.04Z" stroke-width="1"></path><path id="vector_39" fill="#06283d" d="M74.49 148.8624c1.244 0.012 1.474 0.486 4.708 6.69 0.926 1.778 -0.778 2.7098 -1.948 1.1798 -1.236 -1.618 -4.688 -7.1858 -2.76 -7.8698Z" stroke-width="1"></path></g><g id="phone 1"><path id="vector_40" fill="#38a1ff" d="M255.266 263.884c11.23 4.224 28.002 10.25 40.7 11.194 6.344 0.472 8.814 -1.382 11.152 -5.176 12.542 -20.356 45.102 -111.95 53.4 -137.578 14.002 -43.244 12.978 -47.862 6.502 -51.662 -18.614 -10.92 -79.806 -21.742 -96.408 -19.11 -6.902 1.094 -9.048 2.954 -26.452 48.928 -0.884 1.644 -38.9 96.784 -40.676 110.438 -2.932 22.52 30.526 34.97 51.782 42.966Zm58.224 -191.746c-0.084 3.308 -5.676 3.698 -5.598 -0.442 0.072 -3.848 5.676 -2.63 5.598 0.442Zm27.648 6.608c-0.278 1.032 -1.126 1.394 -2.202 1.436 -19.674 -4.466 -20.548 -4.018 -19.866 -6.632 0.52 -1.99 1.844 -1.774 13.514 0.778 7.43 1.624 9.07 2.5 8.556 4.418h-0.002Zm-81.722 24.106c2.122 -5.51 7.468 -22.586 12.39 -27.432 2.374 -2.336 6.49 -2.946 32.614 2.418 65.06 13.356 58.308 12.504 46.622 49.046 -3.494 10.928 -8.228 23.286 -12.716 34.706 -38.334 97.506 -36.67 103.718 -48.39 100.454 -34.756 -9.674 -45.816 -15.206 -67.744 -28.53 -3.1 -1.884 -5.216 -4.416 -6.592 -7.696 -5.236 -12.47 37.922 -103.166 43.818 -122.968l-0.002 0.002Z" stroke-width="1"></path><path id="vector_41" fill="#38a1ff" d="M375.446 92.6718c-12.902 58.29 -50.61 149.4842 -55.752 160.9422 -10.672 23.78 -11.35 30.042 -33.134 25.388 -16.666 -3.56 -50.508 -16.96 -64.66 -25.126 -9.48 -5.47 -14.014 -8.442 -19.038 -20.324 -0.218 -0.516 -0.862 -1.892 -1.458 -1.886 -0.88 0.008 -4.894 14.664 6.108 23.64 20.316 16.578 71.358 35.272 91.446 37.634 8.638 1.016 11.956 -1.496 15.416 -6.712 10.776 -16.24 54.248 -132.1622 62.074 -165.5682 2.16 -9.216 5.034 -15.65 -1.004 -27.988h0.002Z" stroke-width="1"></path><path id="vector_42" fill="#06283d" d="M291.016 253.64c-0.764 0.016 -0.21 0.332 -64.652 -25.256 -2.766 -1.098 -2.954 -1.534 -1.838 -4.23 6.404 -15.47 5.616 -15.772 8.838 -14.556l43.22 16.898c23.292 9.144 23.126 7.954 21.704 12.018 -5.576 15.932 -6.068 15.102 -7.274 15.128l0.002 -0.002Zm-58.484 -40.874c-0.838 -0.142 -0.192 -0.058 -4.666 11.2 -0.99 2.494 -0.576 1.364 48.32 20.508 14.266 5.584 14.13 5.912 14.484 4.962 4.504 -12.056 4.954 -11.816 3.708 -12.298l-61.846 -24.372Z" stroke-width="1"></path><path id="vector_43" fill="#06283d" d="M272.476 182.3482c-1.196 -0.132 -25.76 -10.312 -29.616 -11.698 -0.942 -0.338 -1.362 -1.008 -1.006 -2.06 4.892 -14.452 5.076 -14.288 6.98 -13.894 2.218 0.46 22.37 8.844 24.338 9.644 5.406 2.2 7.326 2.366 6.39 4.52 -5.898 13.566 -5.55 13.57 -7.086 13.488Zm-23.126 -24.86c-0.944 0.042 -0.394 0.412 -4.182 10.258 -0.59 1.534 -0.326 1.24 8.208 4.534 18.37 7.09 17.928 8.012 18.64 6.304 4.54 -10.898 5.372 -10.03 1.796 -11.34 -6.056 -2.218 -23.066 -9.044 -24.462 -9.756Z" stroke-width="1"></path><path id="vector_44" fill="#06283d" d="M308.332 138.776c0.374 -1.39 0.686 -1.48 6.834 0.446 20.142 6.31 18.938 6.142 20.114 6.436 2.672 0.666 1.39 2.228 -3.364 15.778 -0.738 2.106 -3.234 0.176 -26.752 -7.322 -2.354 -0.75 0.082 -3.884 3.168 -15.338Zm2.148 1.92c-0.542 -0.218 -0.134 -0.4 -3.36 10.362 -0.482 1.608 -0.344 1.148 12.796 5.27 10.118 3.174 9.912 3.496 10.392 2.014 3.32 -10.246 4.278 -10.14 1.996 -10.836 -2.358 -0.72 -7.878 -2.506 -21.824 -6.81Z" stroke-width="1"></path><path id="vector_45" fill="#06283d" d="M270.208 93.0078c1.044 -2.902 0.85 -2.002 26.398 7.846 2.93 1.13 1.73 1.338 -3.644 14.678 -1.192 2.96 -1.346 1.85 -26.14 -7.804 -2.708 -1.054 -0.756 -3.21 3.386 -14.72Zm23.48 9.53c-6.798 -2.656 -13.618 -5.256 -20.408 -7.938 -1.604 -0.634 -0.956 -0.448 -4.87 10.24 -0.554 1.512 -0.32 0.742 21.272 9.22 1.368 0.536 0.978 0.536 5.04 -9.178 0.866 -2.07 0.642 -1.69 -1.034 -2.344Z" stroke-width="1"></path><path id="vector_46" fill="#06283d" d="M260.556 170.6862c-2.552 -0.064 -3.022 -4.09 -0.18 -4.064 2.642 0.024 3.012 3.82 0.18 4.064Z" stroke-width="1"></path><path id="vector_47" fill="#06283d" d="M265.546 171.332c0.204 -2.56 3.962 -2.314 3.97 0.154 0.01 2.826 -3.998 2.726 -3.97 -0.154Z" stroke-width="1"></path><path id="vector_48" fill="#06283d" d="M253.134 167.838c-3.078 -0.098 -2.718 -4.166 -0.014 -4.052 2.56 0.108 2.646 3.932 0.014 4.052Z" stroke-width="1"></path></g></g></svg>